<?xml version="1.0" standalone="no"?>
<!DOCTYPE svg PUBLIC "-//W3C//DTD SVG 20010904//EN"
 "http://www.w3.org/TR/2001/REC-SVG-20010904/DTD/svg10.dtd">
<svg version="1.0" xmlns="http://www.w3.org/2000/svg"
 width="550.000000pt" height="678.000000pt" viewBox="0 0 550.000000 678.000000"
 preserveAspectRatio="xMidYMid meet">

<g transform="translate(0.000000,678.000000) scale(0.100000,-0.100000)"
fill="#000000" stroke="none">
<path d="M3100 5984 c-52 -7 -117 -13 -145 -14 -27 0 -57 -5 -65 -10 -21 -13
11 -12 212 8 166 17 218 14 218 -12 0 -14 8 -24 95 -121 29 -33 83 -98 121
-145 37 -47 70 -87 73 -90 13 -10 149 -178 192 -235 65 -86 65 -86 29 -74 -33
12 -114 100 -227 249 -40 52 -92 118 -115 146 -24 29 -79 96 -122 150 -44 55
-85 102 -90 107 -6 4 -24 5 -41 3 -16 -3 -61 -8 -100 -11 -38 -3 -101 -10
-140 -15 -89 -11 -224 -19 -440 -25 -93 -3 -199 -7 -235 -9 -171 -13 -245 -16
-500 -22 -270 -5 -309 -8 -297 -21 11 -10 489 -137 562 -149 28 -4 52 -8 55
-9 3 -1 21 -5 40 -9 19 -4 46 -12 60 -17 19 -7 42 -5 90 11 112 35 245 19 289
-34 15 -17 7 -71 -9 -61 -6 3 -10 2 -10 -4 0 -5 -9 -8 -20 -6 -12 2 -18 0 -14
-6 3 -5 13 -9 22 -7 10 1 23 -1 30 -5 7 -5 12 -3 12 4 0 15 45 7 175 -31 55
-16 145 -36 200 -45 55 -8 116 -19 135 -24 19 -5 91 -24 160 -42 69 -17 134
-33 145 -34 11 -1 34 -7 50 -14 17 -7 57 -17 89 -22 33 -6 85 -18 115 -28 31
-11 70 -22 88 -26 18 -3 48 -17 68 -30 19 -14 35 -20 35 -15 0 6 -6 10 -12 10
-10 0 -10 2 0 9 11 6 5 20 -24 62 -21 30 -41 56 -44 59 -3 3 -19 23 -35 45
-16 22 -50 63 -75 91 -67 76 -95 111 -158 192 -31 41 -85 104 -118 141 -34 38
-69 82 -78 98 -27 54 -76 61 -246 37z m155 -84 c3 -6 -4 -10 -17 -10 -18 0
-20 2 -8 10 19 12 18 12 25 0z m-692 -37 c-13 -2 -35 -2 -50 0 -16 2 -5 4 22
4 28 0 40 -2 28 -4z m576 -24 c-35 -27 -48 -23 -19 5 14 13 29 21 34 18 5 -3
-2 -13 -15 -23z m76 21 c-3 -5 -10 -10 -16 -10 -5 0 -9 5 -9 10 0 6 7 10 16
10 8 0 12 -4 9 -10z m-264 -45 c-9 -30 -9 -30 -10 10 -1 25 2 36 9 29 6 -6 6
-21 1 -39z m-511 25 c-8 -5 -35 -9 -60 -8 l-45 1 45 7 c73 11 78 11 60 0z
m887 -24 c-4 -9 -11 -16 -17 -16 -11 0 -14 33 -3 43 11 11 26 -10 20 -27z
m-1367 14 c0 -6 -28 -9 -67 -9 -60 2 -64 3 -28 9 61 11 95 11 95 0z m239 6
c-12 -10 -99 -16 -99 -7 0 7 22 11 52 11 28 0 49 -2 47 -4z m-134 -15 c-15
-14 -75 -24 -75 -13 0 13 18 20 55 21 17 1 25 -3 20 -8z m635 1 c0 -4 -5 -13
-12 -20 -17 -17 -7 -23 68 -38 63 -13 70 -13 104 5 36 19 38 19 33 1 -6 -21
11 -28 96 -40 40 -6 60 -4 71 5 31 25 100 58 107 51 4 -4 -7 -20 -26 -35 l-34
-28 44 -11 c67 -18 101 -18 132 2 32 21 47 14 29 -14 -10 -16 -7 -20 18 -32
44 -19 36 -30 -17 -23 -40 6 -56 2 -98 -20 -27 -15 -56 -32 -63 -37 -7 -6 -15
-9 -18 -6 -3 3 11 21 30 39 20 18 32 37 28 41 -4 4 -41 13 -83 19 -74 12 -76
11 -121 -14 -57 -34 -79 -35 -49 -3 13 14 20 29 17 34 -3 5 -28 12 -56 16 -48
6 -54 5 -86 -24 -45 -39 -67 -39 -29 0 16 16 27 31 24 33 -9 7 -112 27 -140
27 -16 0 -29 -4 -29 -9 0 -11 -50 -44 -57 -37 -3 2 5 19 17 35 l21 31 -34 0
c-20 0 -40 7 -48 17 -13 15 -10 16 36 10 40 -6 56 -3 80 12 33 22 45 25 45 13z
m307 -14 c-3 -8 -6 -5 -6 6 -1 11 2 17 5 13 3 -3 4 -12 1 -19z m69 -5 c-10
-10 -19 5 -10 18 6 11 8 11 12 0 2 -7 1 -15 -2 -18z m-634 -5 c-6 -6 -20 -13
-29 -14 -16 -2 -16 -1 1 12 24 17 45 19 28 2z m-467 -8 c3 -6 -5 -10 -19 -10
-14 0 -28 5 -31 10 -3 6 5 10 19 10 14 0 28 -4 31 -10z m284 -4 c-10 -10 -89
-23 -94 -16 -3 5 5 11 17 13 33 6 82 8 77 3z m246 -26 c-3 -5 -14 -10 -23 -10
-15 0 -15 2 -2 10 20 13 33 13 25 0z m-367 -12 c-3 -7 -20 -14 -39 -16 -32 -2
-33 -1 -15 13 24 18 59 20 54 3z m138 -3 c-22 -17 -56 -20 -56 -6 0 12 19 19
50 20 24 0 24 0 6 -14z m1019 5 c-3 -5 -12 -10 -18 -10 -7 0 -6 4 3 10 19 12
23 12 15 0z m-750 -20 c-3 -5 -18 -10 -33 -9 l-27 1 25 8 c35 11 42 11 35 0z
m947 -135 c-2 -19 -9 -38 -14 -41 -7 -4 -8 6 -3 27 13 58 23 67 17 14z m-182
-6 c0 -5 -9 -9 -20 -9 -19 0 -26 11 -14 23 8 8 34 -3 34 -14z m-286 -28 c3 -4
-6 -13 -20 -20 -50 -22 -90 -7 -41 17 27 13 54 15 61 3z m167 -11 c-13 -11
-31 -20 -40 -20 -9 1 -1 9 19 20 45 24 51 24 21 0z m157 -28 c3 -16 -2 -22
-17 -22 -24 0 -33 13 -25 35 9 23 38 14 42 -13z m29 -29 c-3 -10 -5 -4 -5 12
0 17 2 24 5 18 2 -7 2 -21 0 -30z m206 -13 c3 -11 1 -23 -4 -26 -5 -3 -9 -2
-10 3 0 4 -2 16 -4 26 -5 24 11 22 18 -3z m-127 -25 c-1 -8 -8 -21 -16 -28 -7
-6 -11 -7 -8 -2 3 6 8 18 11 28 8 21 16 23 13 2z m34 -9 c0 -2 -7 -9 -15 -16
-13 -11 -14 -10 -9 4 5 14 24 23 24 12z m134 -52 c8 -20 -1 -34 -20 -34 -8 0
-14 8 -14 18 0 33 23 44 34 16z"/>
<path d="M2808 5965 c-5 -5 -249 -25 -373 -30 -66 -3 -122 -8 -124 -11 -7 -6
315 2 326 9 4 3 55 8 113 12 57 3 106 8 108 9 3 4 -46 14 -50 11z"/>
<path d="M2055 5920 c-15 -7 -8 -9 28 -8 26 1 47 5 47 10 0 11 -49 9 -75 -2z"/>
<path d="M2147 5923 c-3 -5 18 -7 46 -5 92 5 104 9 30 11 -39 0 -74 -2 -76 -6z"/>
<path d="M1893 5913 c20 -2 54 -2 75 0 20 2 3 4 -38 4 -41 0 -58 -2 -37 -4z"/>
<path d="M1592 5899 l-97 -5 120 -1 c66 0 134 3 150 7 34 9 -3 9 -173 -1z"/>
<path d="M1465 5840 c3 -5 15 -10 26 -10 11 0 17 5 14 10 -3 6 -15 10 -26 10
-11 0 -17 -4 -14 -10z"/>
<path d="M1574 5779 c-3 -5 -10 -7 -15 -4 -10 7 -13 -7 -9 -40 2 -23 68 -163
80 -170 16 -10 19 26 5 64 l-13 39 43 6 c45 7 82 35 57 43 -6 3 -9 10 -5 16 3
7 2 9 -2 4 -5 -4 -17 0 -27 10 -13 12 -18 13 -18 3 0 -10 -4 -9 -12 3 -16 21
-75 40 -84 26z"/>
<path d="M1799 5690 c-9 -5 -26 -8 -38 -5 -11 2 -21 0 -21 -5 0 -5 -6 -7 -13
-4 -9 3 -13 -4 -13 -21 0 -14 5 -25 11 -25 11 0 13 -6 16 -54 1 -21 6 -24 31
-21 17 3 26 0 23 -6 -4 -6 4 -8 20 -5 15 3 24 2 20 -2 -7 -7 -10 -8 -42 -11
-15 -2 -14 -4 5 -11 12 -5 29 -7 37 -4 8 4 15 1 15 -5 0 -19 25 -7 37 19 6 14
12 19 12 13 1 -7 6 -13 12 -13 5 0 7 5 4 10 -3 6 1 10 9 10 9 0 13 -6 10 -13
-4 -11 6 -13 43 -11 39 2 43 1 23 -6 -22 -8 -21 -9 12 -7 21 2 34 -1 31 -7 -4
-6 1 -6 13 -2 15 6 17 5 7 -5 -19 -19 -16 -29 7 -29 11 0 20 -6 20 -12 0 -9 4
-8 10 2 6 9 10 11 10 3 0 -7 7 -10 15 -7 8 3 21 -1 30 -9 8 -9 10 -17 5 -19
-5 -2 -7 -13 -4 -25 5 -17 12 -22 30 -19 12 3 24 0 26 -6 2 -5 15 -11 30 -11
14 -1 24 -5 21 -9 -2 -5 1 -8 6 -8 6 0 11 7 11 16 0 8 4 13 10 9 5 -3 7 -12 3
-20 -3 -9 1 -15 8 -15 7 0 24 -10 38 -22 24 -22 24 -22 -2 10 -27 34 -35 62
-17 62 6 0 5 10 -2 25 -6 13 -14 23 -17 21 -3 -2 -7 6 -7 19 -1 17 2 22 13 18
7 -3 13 -2 12 3 -8 48 25 60 43 17 25 -64 15 -84 -27 -51 l-27 21 13 -21 c18
-28 36 -34 60 -21 21 11 22 36 1 58 -8 8 -12 25 -9 38 4 24 -8 32 -16 11 -4
-10 -6 -10 -6 0 -1 18 -41 -4 -41 -23 0 -8 -4 -15 -10 -15 -13 0 -13 27 -1 34
5 4 8 14 6 24 -2 9 -4 26 -5 37 -1 12 -4 15 -7 7 -3 -8 -9 -9 -16 -4 -7 5 -39
19 -73 31 -88 32 -106 25 -94 -40 7 -36 6 -39 -13 -33 -14 4 -18 3 -13 -7 4
-8 2 -7 -6 2 -7 9 -20 19 -28 22 -8 4 1 4 20 1 31 -6 33 -5 21 9 -7 9 -10 20
-8 25 3 4 1 14 -5 22 -8 12 -9 12 -4 -2 3 -10 1 -18 -4 -18 -6 0 -10 5 -10 10
0 6 -8 10 -17 11 -17 0 -17 1 -1 7 14 6 10 9 -17 18 -25 8 -32 8 -28 0 4 -7 2
-7 -8 1 -21 16 -54 20 -54 6 0 -16 -10 -17 -33 -4 -9 6 -13 11 -9 11 12 0 -15
25 -37 33 -14 6 -17 4 -12 -10 6 -17 5 -17 -8 0 -15 20 -16 20 -37 7z m198
-66 c-3 -3 -12 -4 -19 -1 -8 3 -5 6 6 6 11 1 17 -2 13 -5z m186 -48 c24 -19
21 -25 -10 -20 -33 6 -37 9 -28 23 8 14 16 13 38 -3z m-145 -24 c8 -6 2 -9
-18 -9 -20 0 -26 3 -18 9 7 4 15 8 18 8 3 0 11 -4 18 -8z m-158 -6 c0 -11 -19
-15 -25 -6 -3 5 1 10 9 10 9 0 16 -2 16 -4z m333 -45 c-9 -34 -53 -38 -53 -6
0 7 12 16 28 18 15 2 28 5 29 6 0 0 -1 -8 -4 -18z m-83 -23 c0 -6 -7 -7 -16
-4 -9 3 -20 6 -25 6 -6 0 -8 4 -5 9 8 12 46 2 46 -11z"/>
<path d="M2315 5580 c-3 -6 -1 -11 4 -11 15 -2 23 -5 41 -12 22 -10 181 -14
186 -5 3 4 -34 8 -81 8 -57 0 -96 5 -115 15 -18 9 -31 11 -35 5z"/>
<path d="M1640 5541 c0 -4 4 -12 9 -20 8 -12 12 -12 25 -2 13 11 16 11 16 -2
0 -9 4 -19 10 -22 6 -3 7 1 4 9 -4 10 -1 16 9 16 10 0 13 -7 10 -20 -3 -12 0
-20 8 -20 7 0 20 -6 28 -14 14 -12 18 -11 34 10 16 22 16 23 1 17 -12 -4 -15
-3 -10 5 5 8 1 10 -10 5 -13 -5 -15 -3 -9 7 6 9 4 11 -5 5 -10 -6 -10 -11 3
-20 22 -16 10 -27 -13 -12 -14 8 -16 15 -9 29 8 16 6 18 -21 18 -16 0 -30 4
-30 8 0 4 -11 8 -25 8 -14 0 -25 -2 -25 -5z"/>
<path d="M2593 5531 c-3 -11 -10 -21 -16 -21 -7 0 -7 -4 1 -12 13 -13 -11 -37
-39 -38 -9 0 -23 -8 -30 -17 -11 -15 -11 -16 1 -5 20 17 46 16 31 -1 -8 -10
-7 -14 2 -15 6 -1 26 -4 42 -7 28 -5 28 -5 8 6 -30 16 -29 27 8 65 30 31 31
34 15 50 -16 16 -18 15 -23 -5z"/>
<path d="M2470 5528 c0 -4 6 -8 14 -8 8 0 17 4 20 8 2 4 -4 8 -15 8 -10 0 -19
-4 -19 -8z"/>
<path d="M1898 5513 c7 -3 16 -2 19 1 4 3 -2 6 -13 5 -11 0 -14 -3 -6 -6z"/>
<path d="M2668 5512 c-18 -4 -31 -29 -22 -43 3 -6 0 -17 -8 -26 -14 -18 -18
-94 -5 -104 4 -3 9 -15 10 -27 0 -12 3 -19 5 -17 3 2 18 -3 34 -11 26 -14 56
-65 50 -86 -3 -11 0 -10 44 8 21 9 67 16 104 16 54 0 74 -4 106 -24 37 -24 43
-25 109 -16 58 8 80 7 129 -9 37 -11 61 -24 64 -35 2 -10 8 -15 13 -12 5 3 5
-6 0 -20 -8 -19 -6 -26 6 -30 11 -5 14 -17 11 -46 -3 -38 -3 -39 17 -26 11 7
26 24 32 37 7 13 13 17 13 10 0 -12 3 -12 12 -3 21 21 136 15 187 -10 53 -25
75 -44 67 -57 -4 -5 2 -12 11 -14 14 -4 13 -5 -4 -6 -15 -1 -21 -6 -17 -15 3
-8 0 -17 -6 -21 -7 -4 -8 -11 -1 -18 9 -12 11 -18 11 -37 0 -5 7 -10 16 -10 8
0 12 -5 9 -11 -5 -7 -16 -3 -31 12 -13 12 -20 27 -17 33 4 6 -1 5 -10 -3 -16
-13 -15 -16 18 -38 22 -15 35 -32 35 -46 0 -17 2 -19 9 -7 6 8 7 18 4 22 -18
31 102 88 187 89 32 1 63 -2 69 -5 5 -4 15 3 21 14 6 12 7 20 1 20 -12 0 -41
57 -41 80 0 9 -4 20 -9 26 -6 5 -12 20 -14 34 -10 51 -54 135 -78 147 -13 7
-64 22 -114 34 -49 11 -119 30 -155 40 -36 11 -94 27 -130 35 -36 8 -87 20
-115 28 -124 35 -220 59 -355 91 -80 19 -170 40 -200 48 -30 7 -62 11 -72 9z
m232 -111 c14 -28 13 -31 -15 -31 -18 0 -25 5 -25 18 0 35 24 43 40 13z m159
-145 c10 -11 8 -16 -8 -21 -27 -8 -71 4 -71 21 0 19 64 19 79 0z m517 -9 c3
-3 -9 -13 -28 -23 -18 -9 -35 -20 -38 -25 -3 -4 -12 -4 -20 1 -12 8 -12 10 -1
10 11 0 11 3 1 15 -11 14 -10 14 12 6 15 -5 30 -6 39 0 12 7 12 9 -1 10 -8 1
-20 1 -27 0 -6 -1 -14 2 -16 6 -6 9 70 9 79 0z m-129 -23 c-3 -3 -12 -4 -19
-1 -8 3 -5 6 6 6 11 1 17 -2 13 -5z m-24 -14 c8 0 7 -4 -1 -12 -9 -9 -15 -9
-23 -1 -6 6 -19 9 -28 6 -14 -4 -14 -3 -1 6 8 6 21 9 28 6 8 -3 19 -5 25 -5z
m265 -72 c16 -16 15 -25 -4 -32 -19 -7 -57 21 -48 35 8 13 38 11 52 -3z m132
-11 c0 -15 -105 -150 -120 -155 -27 -10 -4 35 48 89 31 33 59 65 60 70 5 13
12 11 12 -4z m17 -103 c-15 -13 -33 -24 -40 -24 -7 1 3 14 22 30 19 16 37 27
40 24 3 -3 -7 -17 -22 -30z m68 -54 c-3 -5 -18 -10 -33 -10 -21 0 -24 2 -12
10 20 13 53 13 45 0z"/>
<path d="M2436 5492 c-15 -18 -15 -20 0 -33 19 -15 47 -21 38 -8 -3 5 -12 9
-20 9 -16 0 -19 26 -5 35 6 3 14 -3 20 -12 5 -10 12 -15 15 -12 4 3 -2 13 -12
22 -18 16 -20 16 -36 -1z"/>
<path d="M1950 5473 c0 -8 33 -32 44 -33 5 0 3 6 -3 13 -6 8 -9 16 -6 18 2 3
-5 5 -15 6 -11 1 -20 -1 -20 -4z"/>
<path d="M4390 5426 c-56 -37 -184 -108 -337 -185 -110 -56 -143 -77 -143 -92
0 -10 16 -53 35 -95 19 -41 35 -77 35 -80 0 -2 32 -74 70 -160 39 -85 74 -170
77 -187 3 -18 14 -51 25 -75 29 -69 23 -109 -14 -103 -5 0 -8 -13 -8 -29 0
-17 2 -30 5 -30 26 0 185 139 185 163 0 9 8 15 19 14 19 -1 82 48 116 93 19
24 20 46 23 391 3 328 1 368 -13 383 -22 21 -34 20 -75 -8z m30 -76 c0 -5 -2
-10 -4 -10 -3 0 -8 5 -11 10 -3 6 -1 10 4 10 6 0 11 -4 11 -10z m-170 -41
c-14 -11 -79 -47 -145 -80 -66 -34 -125 -65 -132 -71 -7 -5 -18 -8 -24 -6 -14
5 92 70 222 137 95 49 125 56 79 20z m130 23 c0 -13 -12 -22 -22 -16 -10 6 -1
24 13 24 5 0 9 -4 9 -8z m-35 -44 c4 -16 5 -28 1 -28 -10 0 -36 57 -29 64 10
9 21 -5 28 -36z m115 11 c0 -6 -4 -7 -10 -4 -5 3 -10 11 -10 16 0 6 5 7 10 4
6 -3 10 -11 10 -16z m-25 -89 c-3 -5 -11 -10 -16 -10 -6 0 -7 5 -4 10 3 6 11
10 16 10 6 0 7 -4 4 -10z m-54 -46 c51 -26 34 -44 -105 -112 -101 -50 -130
-61 -137 -51 -17 27 -8 36 89 85 74 38 98 54 100 72 4 26 13 27 53 6z m-269
-20 c-12 -8 -28 -13 -35 -11 -7 3 -1 9 13 15 37 16 47 14 22 -4z m-82 -23 c0
-5 -7 -12 -16 -15 -14 -5 -15 -4 -4 9 14 17 20 19 20 6z m423 -149 c4 -32 2
-50 -3 -47 -6 4 -10 29 -10 57 0 64 5 60 13 -10z m-53 -1 c0 -12 -9 -21 -26
-25 -37 -10 -74 -36 -74 -52 0 -18 12 -18 57 1 44 19 53 19 53 1 0 -13 -85
-56 -112 -56 -38 0 -50 53 -20 90 17 21 85 58 110 59 6 1 12 -8 12 -18z m-195
-262 c5 -96 4 -117 -8 -128 -21 -17 -24 -8 -31 89 -16 202 -16 198 2 216 16
16 17 15 23 -22 4 -21 10 -91 14 -155z m205 58 c0 -55 -27 -83 -76 -78 -7 0
-14 10 -17 22 -4 16 -11 19 -26 14 -17 -5 -21 -2 -21 14 0 22 76 67 118 70 20
1 22 -4 22 -42z m22 -89 c-7 -7 -12 -8 -12 -2 0 6 3 14 7 17 3 4 9 5 12 2 2
-3 -1 -11 -7 -17z m-34 -58 c-5 -24 -38 -25 -38 -1 0 14 6 19 20 18 13 -1 19
-7 18 -17z m-46 -42 c-9 -9 -12 -7 -12 12 0 19 3 21 12 12 9 -9 9 -15 0 -24z
m-58 -43 c-4 -8 -10 -15 -15 -15 -11 0 -12 53 -2 64 10 10 24 -31 17 -49z
m-63 -42 c-9 -15 -10 -12 -11 18 0 20 3 39 8 43 11 12 14 -42 3 -61z"/>
<path d="M4363 4763 c-15 -5 -18 -43 -4 -43 5 0 14 7 21 15 14 17 3 35 -17 28z"/>
<path d="M2108 5433 c7 -3 16 -2 19 1 4 3 -2 6 -13 5 -11 0 -14 -3 -6 -6z"/>
<path d="M2447 5416 c-9 -7 -17 -17 -17 -21 0 -4 7 -2 16 6 13 10 17 10 25 -2
5 -8 9 -9 9 -4 0 24 -15 33 -33 21z"/>
<path d="M2080 5410 c-9 -6 -10 -10 -3 -10 6 0 15 5 18 10 8 12 4 12 -15 0z"/>
<path d="M2503 5385 c0 -7 6 -11 14 -8 7 3 13 6 13 8 0 2 -6 5 -13 8 -8 3 -14
-1 -14 -8z"/>
<path d="M1964 5338 l-19 -23 23 19 c12 11 22 21 22 23 0 8 -8 2 -26 -19z"/>
<path d="M2375 5349 c-4 -6 -4 -13 -1 -16 3 -4 6 -1 6 6 0 8 6 11 16 7 8 -3
12 -2 9 4 -8 13 -22 13 -30 -1z"/>
<path d="M2400 5320 c-9 -6 -10 -10 -3 -10 6 0 15 5 18 10 8 12 4 12 -15 0z"/>
<path d="M1825 5310 c-3 -4 6 -10 20 -12 14 -3 25 -2 25 2 0 11 -39 20 -45 10z"/>
<path d="M1880 5296 c0 -2 7 -7 16 -10 8 -3 12 -2 9 4 -6 10 -25 14 -25 6z"/>
<path d="M1946 5284 c-9 -23 -7 -27 10 -20 8 3 13 2 10 -3 -3 -4 1 -16 8 -27
8 -10 12 -24 9 -31 -3 -8 2 -13 12 -13 9 0 19 -9 22 -20 3 -11 9 -20 14 -20
16 0 10 28 -8 42 -19 14 -25 29 -28 67 -2 29 -40 48 -49 25z"/>
<path d="M2211 5251 c-11 -7 -11 -9 0 -14 12 -4 12 -7 0 -18 -9 -9 -11 -9 -7
-1 4 6 2 12 -5 12 -7 0 -9 -8 -6 -21 4 -17 3 -18 -9 -8 -12 10 -13 9 -8 -6 5
-12 -1 -24 -17 -37 -13 -11 -19 -17 -12 -14 7 4 9 -1 6 -14 -4 -14 0 -20 13
-20 9 0 14 3 11 7 -7 7 73 59 85 56 4 -2 6 10 5 25 -2 16 -11 31 -25 38 -12 6
-19 14 -15 17 9 10 1 8 -16 -2z"/>
<path d="M2453 5219 c18 -11 23 -54 7 -64 -5 -3 -10 -12 -10 -18 0 -7 5 -4 11
6 5 9 20 17 31 17 17 0 19 3 10 12 -8 8 -9 15 0 25 8 10 7 12 -4 8 -8 -3 -21
1 -28 10 -7 8 -18 15 -24 15 -6 0 -3 -5 7 -11z"/>
<path d="M2070 5191 c0 -6 5 -13 10 -16 6 -3 10 1 10 9 0 9 -4 16 -10 16 -5 0
-10 -4 -10 -9z"/>
<path d="M1691 5178 c-1 -20 5 -21 34 -7 19 9 19 9 -2 5 -12 -2 -24 1 -27 8
-2 6 -5 3 -5 -6z"/>
<path d="M1895 5180 c-8 -13 5 -13 25 0 13 8 13 10 -2 10 -9 0 -20 -4 -23 -10z"/>
<path d="M2402 5165 c0 -16 2 -22 5 -12 2 9 2 23 0 30 -3 6 -5 -1 -5 -18z"/>
<path d="M2315 5171 c-3 -5 -1 -12 5 -16 5 -3 10 1 10 9 0 18 -6 21 -15 7z"/>
<path d="M2530 5166 c0 -2 7 -7 16 -10 8 -3 12 -2 9 4 -6 10 -25 14 -25 6z"/>
<path d="M2675 5155 c-25 -11 -27 -13 -9 -14 12 -1 24 -8 27 -16 7 -16 -8 -29
-23 -20 -5 3 -10 3 -11 -2 -4 -43 -7 -54 -12 -60 -4 -3 -7 9 -8 28 -1 33 -1
33 -9 8 -9 -30 -2 -79 11 -79 5 0 8 5 7 12 -2 7 7 12 19 13 12 0 25 4 30 9 5
5 2 6 -7 2 -8 -4 -6 0 4 8 11 9 23 16 27 16 12 0 6 103 -6 106 -6 2 -23 -3
-40 -11z"/>
<path d="M2049 5155 c-1 -5 0 -20 1 -33 2 -23 -15 -52 -31 -52 -4 0 -15 7 -23
15 -14 14 -16 14 -21 -7 -3 -13 -4 -49 -2 -80 2 -44 8 -61 25 -75 26 -21 36
-107 15 -125 -7 -6 -13 -7 -13 -3 0 4 -7 2 -15 -5 -21 -18 -19 -53 5 -68 18
-11 22 -8 38 25 15 31 23 38 45 36 16 -1 27 3 27 10 0 13 30 18 66 11 12 -2
24 -14 28 -26 7 -28 48 -49 68 -36 10 7 8 8 -5 4 -11 -3 -16 -2 -12 4 3 6 13
10 21 10 12 0 12 4 4 20 -6 11 -17 20 -26 20 -8 0 -27 8 -41 18 -15 9 -24 11
-20 5 5 -7 4 -13 -1 -13 -11 0 -25 30 -17 38 3 3 5 2 5 -1 0 -4 13 7 29 25 24
27 31 30 44 20 12 -10 17 -10 23 -1 4 8 3 9 -4 5 -11 -7 -17 6 -13 28 1 5 -5
4 -13 -4 -11 -9 -16 -9 -16 -1 0 6 10 15 23 20 21 8 20 9 -10 15 -18 4 -33 9
-33 12 0 2 9 18 20 36 l20 33 -36 32 c-39 34 -76 39 -124 15 -21 -11 -22 -11
-9 0 16 13 15 16 -2 48 -10 19 -19 31 -20 25z m105 -104 c17 -32 13 -41 -19
-41 -31 0 -35 8 -23 41 13 37 24 37 42 0z m-89 -40 c-3 -6 3 -14 12 -20 24
-14 7 -14 -19 0 -17 9 -18 13 -7 20 18 11 22 11 14 0z m36 -60 c-9 -6 -10 -11
-2 -15 6 -4 11 -14 11 -22 0 -8 -4 -13 -9 -9 -5 3 -12 1 -15 -4 -8 -12 18 -21
33 -12 6 4 9 15 6 23 -5 11 2 17 23 20 22 3 29 1 25 -9 -3 -8 -13 -11 -27 -8
-12 4 -16 3 -10 -2 18 -13 12 -58 -8 -58 -9 0 -23 -7 -30 -15 -7 -8 -12 -13
-11 -11 2 2 -5 10 -15 17 -9 7 -12 14 -5 14 6 0 11 13 11 30 -1 26 -3 28 -17
18 -13 -10 -14 -10 -3 2 6 8 12 22 12 32 0 12 7 18 23 18 16 0 18 -3 8 -9z"/>
<path d="M1310 5101 c0 -21 5 -28 16 -27 9 0 19 -5 22 -13 3 -9 -1 -11 -17 -6
-32 10 -26 -17 8 -38 15 -9 30 -15 33 -14 2 1 -11 -13 -29 -31 -18 -18 -33
-41 -33 -52 0 -10 -5 -22 -10 -25 -18 -11 8 -43 40 -50 20 -4 39 -2 54 8 19
13 23 13 23 1 0 -8 -9 -14 -21 -14 -15 0 -17 -3 -8 -12 9 -9 16 -8 30 5 10 9
30 17 45 17 17 0 28 7 32 20 3 11 11 21 16 21 5 1 14 3 19 4 6 1 13 3 16 4 3
0 -2 8 -11 17 -15 15 -15 18 1 35 19 22 35 24 51 8 14 -14 6 -39 -13 -39 -8 0
-14 -4 -14 -10 0 -13 17 -13 25 0 4 6 11 8 16 5 5 -4 9 7 9 24 0 37 16 48 40
26 41 -37 28 -81 -25 -88 -17 -3 -29 -10 -27 -17 1 -6 -7 -14 -18 -17 -21 -6
-22 -30 -1 -25 6 1 11 -4 11 -11 0 -7 -8 -13 -17 -14 -10 -1 -27 -3 -38 -4
-37 -3 -43 1 -38 24 3 12 3 19 0 16 -6 -4 -9 -16 -16 -59 -1 -3 -6 2 -11 10
-20 31 -11 -19 10 -52 11 -18 20 -40 20 -48 0 -27 17 -45 32 -33 7 5 22 12 33
15 17 4 20 0 19 -26 0 -17 3 -41 8 -54 5 -15 4 -21 -2 -17 -5 3 -19 1 -30 -5
-15 -8 -20 -21 -20 -48 0 -28 3 -33 10 -22 5 8 10 11 10 6 0 -5 9 -1 20 9 19
18 20 17 20 -6 0 -17 3 -20 9 -11 11 18 14 115 3 108 -5 -3 -7 6 -4 21 4 19 2
24 -7 18 -9 -5 -9 -1 1 14 11 18 11 23 -2 31 -10 6 -11 10 -2 10 6 0 12 7 12
15 0 8 5 15 10 15 6 0 10 8 10 17 0 14 4 13 23 -5 13 -12 27 -19 32 -15 4 5 5
2 1 -5 -6 -11 -11 -11 -24 0 -15 11 -15 11 -5 -3 7 -9 10 -19 6 -22 -3 -4 -12
1 -20 11 -11 15 -12 13 -2 -10 12 -28 31 -39 27 -16 -4 18 25 16 29 -2 4 -12
3 -12 -5 -2 -7 10 -12 6 -22 -17 -6 -17 -15 -30 -19 -29 -17 2 -31 -3 -31 -11
0 -5 8 -7 18 -4 15 4 18 -1 17 -26 -1 -17 -5 -34 -10 -38 -4 -5 -5 -2 -1 5 4
6 2 12 -3 12 -20 0 -11 -19 17 -36 22 -12 28 -22 24 -40 -3 -19 -9 -23 -23
-19 -14 5 -19 1 -19 -12 0 -12 3 -14 8 -6 5 8 13 9 22 3 11 -7 12 -10 2 -10
-7 0 -11 -4 -7 -9 5 -9 -24 -31 -39 -31 -3 0 -6 16 -6 36 0 29 -3 35 -16 30
-9 -4 -22 -2 -29 4 -28 24 -31 -45 -4 -104 14 -30 49 -52 49 -31 0 24 20 17
30 -11 8 -19 7 -31 -2 -41 -10 -12 -9 -18 7 -29 22 -17 32 -17 40 -4 9 14 41
12 54 -3 8 -10 7 -17 -1 -25 -15 -15 11 -35 64 -52 40 -11 111 0 123 20 10 16
23 12 27 -7 3 -10 3 19 2 65 -2 45 -6 87 -10 94 -4 7 -3 8 4 4 8 -5 12 1 12
14 0 20 -4 18 -36 -14 -34 -34 -58 -43 -54 -22 1 5 -4 13 -12 17 -7 5 -8 9 -2
9 6 0 31 16 56 35 25 19 48 32 51 29 3 -3 2 9 -2 28 -10 48 -5 150 9 158 8 5
7 12 -6 24 -12 13 -15 27 -11 57 3 21 1 42 -4 45 -5 3 -7 10 -3 15 12 20 -6
59 -27 59 -16 0 -20 5 -16 20 6 24 -10 37 -26 21 -16 -16 -27 -13 -27 8 0 24
21 32 38 15 7 -7 19 -11 27 -8 20 8 19 44 0 44 -12 0 -13 4 -5 19 14 27 13 36
-4 22 -10 -8 -16 -9 -21 -1 -3 6 -10 8 -14 6 -4 -3 -8 1 -8 9 0 8 4 12 8 9 4
-2 10 0 14 6 3 5 -1 10 -9 10 -9 0 -16 4 -16 9 0 14 41 41 62 41 10 0 18 7 18
15 0 19 2 19 -45 -5 -31 -16 -57 -20 -110 -19 -87 2 -120 18 -129 59 -10 51
-31 31 -34 -33 -2 -31 -7 -57 -12 -57 -4 0 -7 11 -6 25 l3 24 -29 -24 c-16
-14 -34 -23 -39 -19 -15 9 -10 63 8 91 l17 26 -49 -8 c-28 -5 -63 -9 -80 -9
-27 -1 -30 -4 -27 -31 2 -17 1 -27 -4 -23 -4 4 -13 3 -21 -4 -16 -13 -20 -10
-25 17 -1 11 2 20 9 20 7 0 17 5 24 12 10 10 6 15 -15 23 -15 5 -31 8 -36 5
-5 -3 -11 -1 -15 5 -12 19 -25 10 -25 -19z m185 -100 c0 -17 -41 -25 -51 -10
-8 13 15 30 36 26 8 -1 15 -9 15 -16z m259 -7 c3 -8 2 -12 -4 -9 -6 3 -10 10
-10 16 0 14 7 11 14 -7z m101 6 c-3 -5 -12 -10 -18 -10 -7 0 -6 4 3 10 19 12
23 12 15 0z m-141 -16 c25 -10 19 -26 -6 -19 -31 10 -47 25 -26 25 9 0 23 -3
32 -6z m-296 -26 c18 -18 14 -45 -8 -61 -11 -8 -17 -17 -12 -22 4 -5 2 -5 -5
-1 -6 3 -14 2 -18 -4 -12 -19 -26 -10 -19 13 4 12 8 33 9 47 1 14 3 28 3 33 3
11 37 8 50 -5z m377 -18 c4 -6 10 -8 15 -5 4 3 6 -4 3 -15 -3 -11 -8 -21 -12
-21 -38 -7 -65 -6 -74 2 -7 5 -21 17 -32 25 -11 9 -15 13 -8 10 6 -3 22 -2 35
3 31 13 65 13 73 1z m-184 -121 c-6 -16 -10 -18 -10 -7 -1 22 12 55 16 42 2
-6 -1 -22 -6 -35z m86 15 c7 -18 -20 -44 -44 -44 -13 0 -18 41 -6 53 12 13 44
7 50 -9z m104 -13 c-10 -6 -8 -10 6 -15 17 -7 17 -8 0 -17 -19 -11 -57 -3 -57
12 0 5 6 9 14 9 7 0 19 7 26 15 7 9 15 13 19 10 3 -3 0 -10 -8 -14z m-298 -66
c-6 -16 -16 -19 -26 -8 -9 8 13 34 24 28 4 -3 6 -12 2 -20z m69 11 c15 -7 15
-10 3 -22 -15 -16 -51 -19 -60 -5 -3 5 -1 12 5 16 6 4 8 10 5 14 -5 10 23 8
47 -3z m358 -25 c0 -23 -57 -74 -73 -64 -6 4 -8 0 -4 -10 4 -10 1 -17 -6 -17
-8 0 -9 -3 -1 -8 6 -4 11 -15 11 -24 0 -15 -9 -17 -56 -15 -31 1 -62 6 -70 11
-11 7 -13 5 -8 -8 4 -10 3 -15 -3 -11 -6 4 -10 -7 -10 -25 0 -21 4 -29 12 -24
7 4 8 3 4 -4 -5 -9 -13 -9 -26 -2 -24 13 -35 30 -19 30 8 0 7 5 -2 17 -12 15
-12 16 3 11 12 -5 16 -1 13 17 -2 25 20 42 31 23 4 -7 9 -6 15 3 7 11 9 11 9
1 0 -7 4 -11 9 -7 5 3 12 1 16 -5 3 -5 11 -10 18 -10 8 0 8 3 -1 12 -7 7 -12
17 -12 23 0 5 5 3 10 -5 8 -13 10 -12 10 4 0 15 3 16 15 6 13 -11 14 -8 11 19
-2 17 1 28 5 25 17 -10 46 6 57 31 14 29 42 33 42 6z m-153 -31 c-3 -11 -1
-18 4 -14 5 3 9 1 9 -5 0 -15 -30 -29 -51 -24 -37 10 -16 63 24 63 14 0 18 -5
14 -20z m173 -117 c0 -5 -9 -23 -20 -41 -16 -26 -26 -32 -49 -30 -25 2 -28 5
-20 20 5 10 14 18 20 18 6 0 7 5 3 12 -4 7 -3 8 5 4 6 -4 18 0 27 8 16 17 34
21 34 9z m-155 -32 c9 -16 -35 -35 -48 -22 -9 9 -8 14 3 21 19 12 37 13 45 1z
m54 -112 c-37 -23 -67 1 -32 26 14 10 20 10 32 -2 12 -13 12 -16 0 -24z m81
38 c0 -2 -10 -12 -21 -23 -22 -19 -22 -19 -8 4 12 19 29 30 29 19z m-256 -103
c4 -10 1 -14 -6 -12 -15 5 -23 28 -10 28 5 0 13 -7 16 -16z m134 -15 c2 -10
-6 -19 -20 -22 -30 -8 -45 7 -28 28 16 19 44 16 48 -6z m-101 -52 c18 7 24
-14 8 -27 -13 -11 -14 -10 -9 6 6 16 5 17 -7 7 -13 -13 -38 -19 -26 -6 4 3 1
13 -6 21 -10 13 -9 14 8 5 11 -6 25 -8 32 -6z m148 -71 c-3 -6 -8 -18 -11 -28
-8 -22 -36 -28 -57 -13 -18 13 -24 30 -7 20 6 -3 10 -1 10 6 0 8 5 7 17 -2 12
-10 15 -11 9 -1 -4 7 -3 19 4 27 13 16 44 8 35 -9z"/>
<path d="M1806 4626 c7 -18 29 -21 39 -6 3 6 2 10 -4 10 -5 0 -17 3 -25 6 -12
5 -15 2 -10 -10z"/>
<path d="M1750 4620 c-13 -8 -12 -10 3 -10 9 0 17 5 17 10 0 12 -1 12 -20 0z"/>
<path d="M2400 5124 c1 -11 25 -44 33 -44 2 0 8 7 11 16 4 10 2 13 -6 8 -6 -4
-17 1 -25 11 -7 11 -13 15 -13 9z"/>
<path d="M2246 5095 c-31 -29 -32 -31 -5 -38 17 -5 18 -3 8 9 -6 8 -9 17 -5
21 3 3 6 1 6 -5 0 -22 18 -12 22 13 3 14 4 25 3 25 -1 0 -14 -11 -29 -25z"/>
<path d="M2352 5105 c20 -25 8 -59 -14 -37 -25 25 -38 13 -38 -35 0 -27 4 -55
10 -63 5 -8 5 -19 1 -25 -19 -25 -20 -46 -1 -65 28 -28 42 -25 28 5 -6 13 -15
22 -20 18 -6 -3 -5 4 2 16 7 13 9 38 5 59 -14 83 -13 92 6 81 24 -12 27 -12
38 10 8 14 6 23 -12 37 -22 19 -22 19 -5 -1z"/>
<path d="M2500 5116 c0 -2 7 -7 16 -10 8 -3 12 -2 9 4 -6 10 -25 14 -25 6z"/>
<path d="M1600 5090 c6 -11 13 -20 15 -20 3 0 5 9 5 20 0 11 -7 20 -15 20 -13
0 -14 -4 -5 -20z"/>
<path d="M2795 5098 c27 -10 28 -12 10 -19 -19 -7 -19 -8 3 -8 12 -1 22 3 22
9 0 11 -33 30 -52 29 -7 0 0 -5 17 -11z"/>
<path d="M2588 5090 c-4 -14 -40 -20 -54 -9 -8 7 -11 1 -11 -16 0 -35 -9 -41
-43 -28 -17 6 -28 8 -25 3 3 -4 18 -13 35 -18 27 -10 30 -9 36 14 3 13 9 24
13 25 41 5 71 22 59 34 -3 4 -8 1 -10 -5z"/>
<path d="M2989 5057 c4 -32 6 -36 9 -15 2 20 7 25 20 21 9 -3 15 -4 12 -2 -49
41 -46 42 -41 -4z"/>
<path d="M2845 5080 c-3 -6 1 -7 9 -4 9 3 16 2 16 -4 0 -6 13 -13 29 -17 15
-3 38 -15 49 -25 28 -27 34 -25 26 8 -9 35 -21 42 -62 38 -18 -2 -35 1 -38 5
-7 12 -21 11 -29 -1z"/>
<path d="M3032 5047 c-7 -8 -6 -18 4 -31 8 -11 14 -14 14 -7 0 7 7 19 15 27 8
9 15 11 15 6 0 -5 11 -7 25 -4 29 5 31 0 9 -22 -8 -9 -11 -16 -5 -16 5 0 13 5
16 10 4 6 10 8 15 5 4 -3 7 3 6 13 -2 27 -94 43 -114 19z"/>
<path d="M3055 4985 c-15 -19 -36 -37 -46 -40 -17 -6 -20 -14 -17 -58 3 -47 5
-51 32 -58 38 -11 46 -3 13 12 -24 11 -45 49 -26 49 4 0 6 6 3 14 -6 15 33 66
50 66 6 0 4 -5 -5 -10 -11 -6 -17 -24 -17 -50 -1 -37 1 -40 26 -40 35 1 59 20
68 54 6 26 9 27 50 22 49 -6 58 1 39 28 -9 12 -20 16 -32 12 -15 -6 -15 -8 -3
-16 8 -6 11 -10 5 -10 -5 0 -17 4 -25 10 -9 6 -17 5 -22 -3 -5 -8 -8 -3 -8 11
0 18 -3 21 -17 14 -10 -5 -24 -7 -32 -4 -8 3 -11 0 -7 -7 5 -7 1 -9 -9 -5 -14
6 -14 8 1 25 9 11 14 19 11 19 -3 0 -18 -16 -32 -35z m78 -22 c4 -3 0 -15 -10
-25 -9 -10 -13 -18 -9 -18 4 0 2 -9 -4 -20 -6 -12 -21 -20 -36 -20 -21 0 -24
4 -21 28 2 15 9 28 15 28 7 1 17 2 23 3 5 0 8 5 5 10 -4 5 0 12 6 14 19 8 24
8 31 0z"/>
<path d="M2418 4988 c-9 -5 -4 -8 15 -8 15 0 27 4 27 8 0 11 -25 11 -42 0z"/>
<path d="M2560 4982 c-26 -17 -29 -46 -6 -55 9 -4 12 2 9 18 -4 15 2 28 18 39
31 21 11 19 -21 -2z"/>
<path d="M2658 4994 c-4 -3 -4 -12 -1 -20 4 -10 0 -13 -13 -8 -17 5 -17 4 1
-7 11 -7 25 -13 30 -14 6 0 10 -4 10 -10 0 -5 -6 -9 -12 -9 -7 1 -13 -2 -13
-7 0 -5 -6 -6 -14 -3 -11 4 -13 0 -9 -16 4 -14 8 -18 13 -10 6 9 9 9 15 0 5
-8 12 -7 24 4 10 9 30 17 44 18 34 3 35 16 2 24 -14 3 -36 19 -48 35 -13 17
-26 27 -29 23z"/>
<path d="M2457 4965 c-21 -29 -42 -32 -56 -7 -6 9 -11 12 -11 6 0 -6 7 -17 15
-24 9 -7 14 -18 11 -25 -2 -7 7 -11 25 -11 23 0 26 2 17 13 -8 10 -7 17 7 27
18 13 30 46 17 46 -4 0 -15 -12 -25 -25z"/>
<path d="M2610 4979 c0 -5 5 -7 10 -4 6 3 10 8 10 11 0 2 -4 4 -10 4 -5 0 -10
-5 -10 -11z"/>
<path d="M3157 4920 c9 -10 8 -19 -4 -39 -14 -24 -14 -25 1 -7 9 11 20 22 26
26 5 3 -1 12 -13 19 -16 10 -19 10 -10 1z"/>
<path d="M2925 4906 c-30 -13 -30 -13 -7 -20 13 -4 31 -21 41 -37 l18 -30 -1
35 c0 20 -4 36 -8 36 -4 0 -5 7 -2 15 7 18 -1 18 -41 1z"/>
<path d="M3206 4910 c-2 -3 0 -13 3 -24 7 -17 8 -17 23 6 15 22 14 24 -4 24
-11 0 -21 -3 -22 -6z"/>
<path d="M2516 4889 c2 -4 -5 -14 -16 -22 -11 -7 -17 -17 -13 -21 4 -4 0 -4
-10 0 -10 3 -18 1 -18 -5 -1 -6 -2 -16 -3 -22 0 -6 -10 -17 -21 -26 l-20 -15
20 4 c11 2 37 24 58 50 21 26 48 48 60 50 17 3 15 5 -10 9 -18 3 -30 2 -27 -2z"/>
<path d="M2398 4880 c25 -11 26 -14 12 -41 -7 -13 -7 -19 0 -19 5 0 10 5 10
11 0 5 4 8 9 5 13 -8 0 37 -13 46 -6 4 -18 7 -26 7 -8 0 -5 -4 8 -9z"/>
<path d="M1565 4871 c-6 -11 13 -26 22 -17 4 3 1 6 -6 6 -7 0 -9 5 -6 10 3 6
4 10 1 10 -3 0 -7 -4 -11 -9z"/>
<path d="M3230 4870 c0 -5 5 -10 10 -10 6 0 10 5 10 10 0 6 -4 10 -10 10 -5 0
-10 -4 -10 -10z"/>
<path d="M2340 4831 c0 -25 6 -27 13 -6 4 8 2 17 -3 20 -6 4 -10 -3 -10 -14z"/>
<path d="M3280 4829 c-13 -9 -13 -10 2 -6 12 4 16 0 15 -14 -1 -22 -6 -23 -42
-9 -14 5 -23 14 -20 20 8 12 -8 13 -20 1 -6 -5 -19 -11 -30 -14 -16 -4 -14 -5
6 -6 63 -3 170 -71 149 -96 -6 -7 -3 -11 9 -12 14 -1 17 4 14 18 -3 10 -10 19
-17 19 -6 0 -4 5 4 10 13 8 12 10 -3 10 -10 0 -15 5 -12 10 3 6 0 10 -8 10 -9
0 -13 11 -12 35 2 36 -8 43 -35 24z"/>
<path d="M3110 4813 c-25 -12 -25 -13 -2 -13 12 0 22 5 22 11 0 8 5 8 15 -1 9
-7 15 -8 15 -2 0 17 -24 19 -50 5z"/>
<path d="M1996 4808 c3 -5 10 -6 15 -3 13 9 11 12 -6 12 -8 0 -12 -4 -9 -9z"/>
<path d="M3996 4812 c-5 -9 -91 -29 -146 -34 -14 -2 -25 -9 -25 -18 0 -8 6
-14 12 -13 10 2 10 -3 0 -24 -8 -19 -13 -22 -15 -11 -2 9 -11 18 -22 21 -10 2
-23 14 -29 26 -10 17 -9 20 4 15 8 -4 15 -1 15 5 0 6 -3 11 -7 12 -5 0 -17 2
-28 4 -74 14 -70 18 -72 -70 -1 -86 -9 -132 -27 -154 -8 -11 -8 -13 0 -8 13 8
27 -19 18 -34 -3 -5 0 -8 8 -7 8 2 13 -7 14 -24 1 -17 -4 -28 -12 -28 -8 0
-14 5 -14 10 0 6 -5 10 -12 10 -6 0 -21 8 -32 18 -21 17 -21 17 -3 -4 9 -11
14 -24 10 -27 -3 -4 -1 -8 5 -8 7 -1 18 -2 24 -3 37 -3 2 -109 -42 -125 -25
-9 -25 -9 5 -10 26 -1 32 4 40 32 9 27 15 32 41 32 16 0 41 8 55 18 13 10 18
15 12 12 -7 -3 -13 -2 -13 3 0 16 13 22 27 11 9 -9 13 -8 13 0 0 6 3 10 8 9
11 -4 142 66 142 75 0 5 -5 5 -12 1 -7 -4 -8 -3 -4 4 4 6 13 9 22 5 8 -3 23 5
35 18 11 13 30 24 42 24 15 0 22 6 21 18 -1 9 3 14 8 11 13 -8 29 17 20 31 -7
11 -9 17 -11 41 0 8 -5 12 -11 9 -5 -3 -8 0 -5 7 3 7 1 19 -4 27 -8 12 -12 12
-26 -2 -18 -18 -28 -21 -39 -10 -8 8 -34 14 -58 14 -22 0 -24 17 -3 25 8 4 12
11 8 17 -4 6 0 8 10 4 10 -3 17 -2 17 2 0 19 26 18 27 -1 4 -44 33 -27 33 19
0 23 -15 39 -24 25z m-266 -66 c0 -3 -4 -8 -10 -11 -5 -3 -10 -1 -10 4 0 6 5
11 10 11 6 0 10 -2 10 -4z m169 -33 c-1 -16 -18 -47 -18 -36 -1 7 -8 10 -16 7
-18 -7 -19 2 -2 21 13 15 37 20 36 8z m-125 -26 c10 -7 17 -22 14 -33 -3 -18
-4 -18 -26 4 -35 35 -26 57 12 29z m157 -38 c-28 -23 -41 -24 -41 -4 0 8 4 15
10 15 5 0 6 7 3 17 -4 11 -3 14 5 9 7 -4 12 -2 12 6 0 8 6 6 18 -6 16 -16 16
-18 -7 -37z m89 -4 c0 -8 -7 -15 -15 -15 -16 0 -20 12 -8 23 11 12 23 8 23 -8z
m-200 -10 c0 -9 6 -12 15 -9 10 4 15 0 15 -11 0 -14 3 -15 14 -6 10 8 16 9 21
2 4 -7 14 -3 28 9 12 11 27 18 35 15 8 -3 10 0 6 6 -4 7 -1 10 6 7 8 -2 14
-14 15 -27 2 -30 -38 -47 -77 -33 -20 7 -25 7 -22 -3 3 -7 0 -16 -5 -20 -6 -3
-9 -10 -7 -14 9 -14 -33 -10 -45 5 -6 8 -20 14 -30 14 -10 0 -25 13 -34 30
-14 28 -14 30 2 28 35 -3 54 2 48 12 -3 6 -1 10 4 10 6 0 11 -7 11 -15z m190
-35 c0 -5 -4 -10 -10 -10 -5 0 -10 5 -10 10 0 6 5 10 10 10 6 0 10 -4 10 -10z
m-270 -24 c0 -8 -7 -16 -15 -20 -10 -4 -15 1 -15 14 0 11 7 20 15 20 8 0 15
-6 15 -14z m188 -36 c-2 -22 -9 -32 -30 -39 -20 -7 -28 -7 -28 1 0 7 -7 3 -15
-8 -14 -19 -14 -18 -15 3 0 16 8 25 25 29 14 3 23 10 20 14 -5 8 22 29 38 30
4 0 6 -13 5 -30z m-110 -22 c2 -20 -3 -31 -22 -43 -41 -27 -58 -3 -34 50 16
35 52 31 56 -7z"/>
<path d="M2957 4796 c-3 -8 -3 -23 -1 -34 4 -12 0 -22 -12 -26 -25 -10 -30 2
-8 19 18 14 17 15 -13 10 -18 -3 -44 -10 -58 -15 -34 -13 -77 -11 -142 7 -29
8 -54 13 -56 11 -2 -2 -12 4 -22 12 -11 8 -16 10 -12 4 4 -7 0 -14 -8 -18 -22
-8 -18 -43 5 -56 25 -13 43 -47 36 -67 -6 -14 -9 -14 -29 0 -22 14 -23 14 -22
-6 1 -14 8 -21 19 -19 9 2 16 -2 16 -8 0 -6 4 -9 8 -6 15 9 12 -50 -3 -70 -13
-16 -16 -17 -25 -4 -6 8 -9 27 -7 42 2 15 0 25 -4 22 -12 -7 -10 -154 2 -154
5 0 7 -6 4 -12 -4 -7 0 -5 8 5 24 29 47 15 47 -29 0 -17 -36 -19 -43 -1 -4 10
-6 10 -6 0 -1 -7 8 -22 19 -33 10 -10 15 -22 10 -25 -4 -3 -16 2 -24 11 -23
23 -20 -3 4 -28 24 -26 25 -38 4 -38 -10 0 -14 -6 -10 -15 3 -8 0 -14 -7 -12
-7 1 -13 -12 -14 -33 -2 -27 -1 -30 6 -15 5 11 7 23 5 26 -1 3 10 13 27 23 29
17 39 49 19 61 -8 5 -8 11 -1 19 6 7 8 16 4 19 -3 4 -1 7 5 7 6 0 13 9 17 20
3 11 9 19 13 19 20 -3 50 15 66 39 l17 27 -6 -25 c-5 -19 -4 -22 4 -10 6 8 8
28 5 43 -4 19 0 34 12 48 19 21 8 25 -17 6 -9 -7 -14 -18 -12 -24 3 -7 0 -13
-6 -13 -13 0 -14 20 -3 36 12 18 52 36 52 24 0 -7 8 -9 20 -5 30 9 26 -21 -6
-50 -15 -14 -21 -25 -15 -25 7 0 9 -5 5 -12 -4 -7 -3 -8 5 -4 6 4 9 11 7 15
-3 4 1 8 9 8 8 0 16 -6 19 -14 3 -7 0 -12 -7 -10 -7 1 -12 -5 -12 -13 0 -8 8
-15 18 -16 12 -1 13 -1 2 3 -26 8 -16 20 14 15 19 -3 30 1 34 12 5 11 1 16
-13 16 -11 0 -20 3 -20 7 0 15 52 73 67 73 11 0 14 6 9 23 -13 40 -9 116 6
139 15 22 18 71 6 83 -3 3 -8 -1 -11 -9z m-305 -45 c3 8 9 9 21 3 11 -7 13
-14 7 -24 -8 -13 -10 -12 -10 3 0 12 -4 16 -12 10 -21 -13 -35 -12 -35 3 0 10
4 11 13 3 8 -7 13 -6 16 2z m57 -47 c4 3 8 -1 8 -9 0 -11 -4 -12 -14 -4 -7 6
-12 19 -12 28 1 13 2 13 6 -2 2 -9 8 -15 12 -13z m108 0 c-3 -3 -12 -4 -19 -1
-8 3 -5 6 6 6 11 1 17 -2 13 -5z m-70 -61 c-21 -22 -32 -11 -17 17 9 16 15 19
23 11 8 -8 7 -16 -6 -28z m98 17 c-3 -5 -10 -10 -16 -10 -5 0 -9 5 -9 10 0 6
7 10 16 10 8 0 12 -4 9 -10z m46 -42 c13 -24 7 -32 -19 -24 -19 6 -35 39 -25
50 9 8 33 -6 44 -26z m-114 -20 c2 -28 -14 -48 -38 -48 -32 0 -15 48 21 63 8
3 15 6 15 6 1 1 1 -9 2 -21z m32 8 c9 -11 9 -16 -1 -22 -7 -4 -10 -4 -6 1 4 4
3 14 -3 22 -6 7 -9 13 -6 13 2 0 10 -6 16 -14z m-76 -155 c3 -14 1 -18 -9 -14
-8 3 -14 11 -14 19 0 21 17 17 23 -5z"/>
<path d="M3642 4761 c-11 -7 -11 -9 2 -14 10 -4 16 -1 16 8 0 17 -1 17 -18 6z"/>
<path d="M2145 4733 c-16 -13 -17 -14 -3 -10 10 3 20 2 23 -4 7 -10 25 -3 25
11 0 16 -26 18 -45 3z"/>
<path d="M2509 4713 c-13 -16 -12 -17 4 -4 9 7 17 15 17 17 0 8 -8 3 -21 -13z"/>
<path d="M3600 4720 c11 -7 11 -10 2 -10 -7 0 -10 -5 -7 -10 5 -8 11 -7 21 1
12 10 12 14 2 20 -7 5 -17 9 -23 9 -5 0 -3 -5 5 -10z"/>
<path d="M2095 4677 c-47 -46 -56 -67 -39 -100 8 -15 19 -25 24 -22 6 4 10 0
10 -7 0 -7 9 -19 21 -26 12 -8 18 -9 15 -4 -3 6 1 17 9 26 13 13 14 19 3 38
-7 13 -11 26 -10 30 1 4 -4 5 -11 2 -7 -2 -22 5 -33 17 -19 22 -19 22 2 15 23
-7 50 16 40 33 -4 5 2 11 11 13 15 3 15 5 3 9 -8 2 -28 -8 -45 -24z m19 -12
c-4 -8 -11 -15 -16 -15 -6 0 -5 6 2 15 7 8 14 15 16 15 2 0 1 -7 -2 -15z"/>
<path d="M2970 4618 c0 -100 -7 -141 -21 -132 -5 3 -9 0 -9 -5 0 -6 5 -11 11
-11 31 0 52 -73 27 -98 -7 -7 -10 -39 -9 -82 2 -57 7 -76 23 -92 16 -16 18
-22 7 -29 -7 -4 -16 -6 -20 -3 -10 6 -19 -22 -14 -47 2 -12 14 -28 25 -36 25
-17 28 -58 4 -49 -9 4 -23 1 -30 -5 -8 -6 -23 -9 -33 -6 -15 3 -18 1 -14 -11
5 -11 3 -13 -7 -7 -9 6 -11 4 -5 -6 16 -24 13 -50 -5 -47 -9 2 -29 -5 -44 -16
-16 -10 -25 -13 -22 -7 4 6 2 11 -4 11 -6 0 -9 4 -6 9 4 5 -4 7 -16 3 -20 -5
-21 -6 -3 -12 14 -5 15 -9 6 -14 -7 -5 -20 -1 -30 8 -23 21 -37 20 -20 -1 10
-12 3 -11 -26 7 -50 29 -63 40 -47 40 10 0 10 5 2 21 -9 16 -14 18 -25 9 -11
-9 -16 -6 -25 11 -10 17 -9 23 1 31 11 7 9 8 -5 6 -26 -4 -30 -42 -6 -63 11
-10 20 -26 20 -37 0 -10 3 -18 8 -19 25 -2 90 -18 212 -52 60 -16 130 -28 130
-22 0 3 -21 11 -47 18 -26 8 -49 19 -51 25 -2 8 3 10 15 5 10 -3 15 -3 11 1
-4 5 2 17 12 28 18 20 19 20 55 -21 45 -50 88 -61 148 -37 24 9 36 11 29 4 -7
-7 -12 -17 -12 -23 1 -5 10 1 20 14 21 24 27 71 10 71 -5 0 -10 -4 -10 -8 0
-4 -9 -8 -20 -9 -28 -2 -25 4 19 47 21 20 40 49 43 65 5 23 3 26 -16 22 -11
-2 -29 -8 -38 -12 -28 -11 -21 12 8 32 49 33 75 65 64 78 -7 8 -5 12 4 12 16
0 75 44 75 57 1 5 -6 3 -14 -4 -28 -23 -15 -1 18 30 17 17 25 28 16 25 -12 -4
-19 4 -27 34 -11 33 -15 38 -35 33 -22 -5 -22 -5 -3 17 14 15 19 34 17 59 -4
56 -3 62 2 132 3 36 8 75 12 88 5 14 3 22 -4 22 -7 0 -9 -5 -6 -11 4 -6 -2 -9
-17 -7 -34 3 -118 -13 -118 -23 0 -5 5 -9 11 -9 5 0 8 -4 4 -9 -3 -6 3 -15 14
-20 26 -14 34 -14 26 2 -4 6 0 4 8 -5 15 -19 27 -14 27 9 0 8 -5 11 -12 8 -7
-4 -4 1 6 9 28 23 34 20 31 -16 -2 -25 -8 -34 -24 -36 -12 -2 -19 -8 -16 -13
9 -13 -7 -11 -27 5 -10 7 -15 16 -11 19 9 10 -12 8 -41 -2 -16 -7 -26 -7 -28
0 -2 7 -13 7 -32 -1 -23 -8 -32 -7 -46 5 -9 8 -24 15 -32 15 -9 0 -21 7 -28
15 -9 10 -9 15 -1 15 6 0 11 9 11 21 0 15 4 19 16 15 11 -4 8 3 -8 23 -13 17
-26 30 -30 30 -5 1 -8 -41 -8 -91z m77 -59 c17 -17 -6 -62 -28 -56 -10 3 -20
0 -22 -7 -2 -6 -4 5 -5 23 0 19 1 39 4 43 7 12 38 10 51 -3z m58 -25 c-22 -16
-40 -8 -25 11 6 8 19 11 27 8 14 -5 14 -8 -2 -19z m105 -8 c0 -24 -45 -69 -71
-72 -13 -1 -26 -3 -29 -5 -3 -1 -16 -2 -30 -3 -18 -1 -26 -7 -28 -23 -2 -13
-8 -23 -13 -23 -6 0 -7 5 -4 10 3 6 1 10 -6 10 -7 0 -4 7 7 15 10 9 13 14 5
13 -7 -2 -16 4 -18 12 -4 13 -3 13 6 0 9 -12 11 -12 17 3 3 9 16 17 28 18 20
0 20 1 2 8 -19 7 -19 8 2 13 15 4 22 2 22 -8 0 -26 40 -15 58 16 18 31 52 41
52 16z m54 -61 c7 -20 -2 -42 -21 -50 -27 -10 -38 11 -19 39 19 29 31 33 40
11z m-100 -29 c-3 -7 2 -20 10 -29 21 -21 20 -33 -3 -33 -11 0 -18 4 -15 8 2
4 -16 16 -41 27 -25 11 -45 23 -45 26 0 3 9 1 19 -5 24 -12 34 -13 26 -1 -3 5
7 12 22 14 16 2 29 5 30 6 1 0 0 -5 -3 -13z m113 -49 c1 -2 -7 -8 -17 -15 -17
-10 -18 -9 -14 6 4 11 -1 9 -16 -8 -12 -14 -19 -19 -15 -12 3 6 1 12 -4 12 -6
0 -11 4 -11 10 0 5 7 6 17 3 10 -4 14 -2 9 5 -4 7 3 9 21 6 15 -3 29 -6 30 -7z
m-161 -23 c4 -17 1 -31 -10 -42 -19 -19 -33 -8 -36 28 -3 37 -2 40 20 40 13 0
22 -9 26 -26z m-73 -31 c-9 -7 -13 -13 -8 -13 5 0 4 -5 -2 -11 -16 -16 -57 -1
-44 15 6 7 9 15 6 18 -3 2 9 3 25 0 26 -4 29 -2 24 14 -5 16 -4 16 5 4 8 -11
7 -18 -6 -27z m207 7 c0 -5 -2 -10 -4 -10 -3 0 -8 5 -11 10 -3 6 -1 10 4 10 6
0 11 -4 11 -10z m29 -92 c-15 -14 -86 -21 -72 -7 4 4 21 15 38 23 33 17 57 6
34 -16z m-109 6 c0 -25 -33 -60 -52 -56 -26 5 -22 27 10 51 33 25 42 26 42 5z
m40 12 c0 -2 -7 -7 -16 -10 -8 -3 -12 -2 -9 4 6 10 25 14 25 6z m22 -60 c7 4
8 2 4 -5 -9 -13 -26 -5 -25 12 0 9 2 8 6 -1 2 -6 10 -9 15 -6z m48 -2 c-15
-18 -27 -18 -27 -1 0 7 9 14 19 14 16 2 17 -1 8 -13z m-90 -3 c0 -4 9 -17 20
-28 17 -19 18 -22 2 -28 -20 -7 -43 20 -35 43 4 10 2 13 -5 8 -6 -3 -13 -3
-16 2 -2 4 4 9 15 9 10 1 19 -2 19 -6z m-80 -87 c0 -16 -2 -16 -24 -8 -13 5
-14 9 -5 20 13 16 29 9 29 -12z m10 -106 c-1 -29 -15 -39 -36 -23 -16 13 -17
16 -4 25 21 14 40 12 40 -2z m-153 -4 c-3 -3 -12 -4 -19 -1 -8 3 -5 6 6 6 11
1 17 -2 13 -5z"/>
<path d="M2217 4653 c4 -9 0 -11 -12 -7 -16 7 -16 5 1 -14 17 -20 19 -20 36
-5 23 20 23 24 1 17 -15 -5 -15 -3 1 10 19 16 19 16 -6 14 -17 -1 -24 -7 -21
-15z"/>
<path d="M2415 4660 c-3 -5 -1 -10 4 -10 6 0 11 5 11 10 0 6 -2 10 -4 10 -3 0
-8 -4 -11 -10z"/>
<path d="M2527 4663 c-10 -9 -9 -33 1 -33 4 0 8 9 9 20 2 21 0 24 -10 13z"/>
<path d="M2556 4663 c5 -5 11 -12 15 -16 3 -4 12 -1 19 8 11 13 9 15 -15 15
-16 0 -24 -3 -19 -7z"/>
<path d="M2455 4650 c-16 -6 -14 -8 13 -12 18 -2 35 -1 37 3 7 10 -28 17 -50
9z"/>
<path d="M1986 4637 c3 -10 9 -15 12 -12 3 3 0 11 -7 18 -10 9 -11 8 -5 -6z"/>
<path d="M3108 4633 c7 -3 16 -2 19 1 4 3 -2 6 -13 5 -11 0 -14 -3 -6 -6z"/>
<path d="M2190 4621 c0 -6 4 -13 10 -16 6 -3 7 1 4 9 -7 18 -14 21 -14 7z"/>
<path d="M3478 4613 c7 -3 16 -2 19 1 4 3 -2 6 -13 5 -11 0 -14 -3 -6 -6z"/>
<path d="M2010 4594 c8 -10 15 -20 16 -22 1 -2 4 1 7 5 3 5 -4 15 -16 23 -21
12 -21 12 -7 -6z"/>
<path d="M4100 4600 c0 -8 -12 -25 -27 -37 -16 -13 -21 -22 -13 -21 8 2 19 8
25 15 5 6 18 13 28 15 16 3 17 5 3 23 -11 14 -15 16 -16 5z"/>
<path d="M2168 4593 c7 -3 16 -2 19 1 4 3 -2 6 -13 5 -11 0 -14 -3 -6 -6z"/>
<path d="M2214 4590 c-30 -12 -39 -30 -17 -31 16 0 16 -1 -1 -8 -18 -7 -18 -8
-3 -14 24 -9 21 -32 -5 -44 -20 -9 -19 -10 11 -10 27 0 36 6 49 34 9 18 20 33
25 33 5 0 4 6 -2 13 -6 8 -7 18 -3 23 4 4 -1 2 -11 -5 -15 -12 -17 -12 -11 3
7 18 0 19 -32 6z"/>
<path d="M2318 4593 c-16 -4 -16 -6 2 -25 11 -12 25 -18 35 -14 11 4 14 2 9
-6 -5 -7 0 -9 14 -6 12 4 20 3 17 -2 -12 -20 107 -26 166 -8 34 10 39 15 39
40 0 23 -4 28 -17 25 -57 -16 -84 -20 -135 -22 -32 -1 -58 1 -58 5 0 4 -7 10
-14 13 -11 4 -13 1 -9 -11 6 -16 5 -16 -13 -1 -10 8 -27 14 -36 12z"/>
<path d="M3313 4548 c-1 -39 0 -40 7 -13 4 17 8 24 9 18 1 -15 61 -18 61 -3 0
6 -11 10 -24 10 -14 0 -28 5 -32 12 -5 7 -3 8 6 3 9 -5 11 -4 6 3 -16 26 -32
11 -33 -30z"/>
<path d="M2009 4543 c-13 -16 -12 -17 4 -4 16 13 21 21 13 21 -2 0 -10 -8 -17
-17z"/>
<path d="M3583 4553 c-18 -7 -16 -23 3 -23 8 0 13 4 10 9 -4 5 0 12 6 14 7 3
9 5 3 5 -5 0 -16 -2 -22 -5z"/>
<path d="M4120 4534 c0 -8 5 -12 10 -9 6 4 8 11 5 16 -9 14 -15 11 -15 -7z"/>
<path d="M2263 4473 c-16 -14 -18 -21 -8 -30 10 -9 15 -9 24 0 10 9 11 6 6
-15 -4 -16 -3 -28 2 -28 12 0 15 60 4 78 -6 10 -12 8 -28 -5z"/>
<path d="M3640 4438 c0 -8 -11 -20 -25 -26 -33 -15 -33 -15 -38 6 -4 15 -5 15
-6 0 -2 -26 15 -30 47 -14 16 8 32 13 35 10 3 -3 4 1 3 10 -3 21 -16 33 -16
14z"/>
<path d="M2240 4410 c13 -24 17 -25 17 -5 0 8 -6 16 -14 19 -11 4 -11 1 -3
-14z"/>
<path d="M2814 4385 c6 -16 -32 -48 -47 -38 -6 3 -7 1 -4 -5 15 -23 81 16 71
42 -3 9 -11 16 -16 16 -6 0 -8 -7 -4 -15z"/>
<path d="M2130 4380 c-13 -8 -13 -10 2 -10 9 0 20 5 23 10 8 13 -5 13 -25 0z"/>
<path d="M3345 4370 c10 -11 20 -20 23 -20 3 0 -3 9 -13 20 -10 11 -20 20 -23
20 -3 0 3 -9 13 -20z"/>
<path d="M3505 4360 c-3 -6 1 -7 9 -4 18 7 21 14 7 14 -6 0 -13 -4 -16 -10z"/>
<path d="M2721 4351 c-8 -5 -9 -11 -3 -15 5 -3 12 1 16 9 6 17 6 18 -13 6z"/>
<path d="M2850 4341 c-11 -21 -4 -51 12 -51 7 0 6 5 0 13 -9 10 -7 19 4 35 8
12 11 22 5 22 -6 0 -15 -9 -21 -19z"/>
<path d="M2241 4330 c-24 -11 -49 -20 -57 -20 -8 0 -14 -4 -14 -8 0 -5 14 -7
30 -4 41 6 39 -15 -2 -28 -31 -9 -31 -10 12 -5 57 5 102 26 95 43 -3 8 -5 20
-5 28 0 18 -6 18 -59 -6z"/>
<path d="M3457 4313 c-14 -14 -6 -23 31 -32 55 -14 87 -8 88 16 1 11 -5 20
-12 20 -9 0 -10 -4 -5 -11 7 -8 -7 -10 -45 -8 -30 2 -52 8 -48 13 6 10 0 12
-9 2z"/>
<path d="M3406 4302 c-3 -5 1 -9 9 -9 8 0 15 4 15 9 0 4 -4 8 -9 8 -6 0 -12
-4 -15 -8z"/>
<path d="M2885 4281 c3 -5 -4 -16 -15 -24 -21 -14 -20 -14 4 -14 14 0 23 3 21
8 -3 4 -1 10 5 14 12 7 4 25 -11 25 -6 0 -8 -4 -4 -9z"/>
<path d="M2719 4253 c-11 -15 -11 -16 1 -5 18 15 34 16 24 0 -4 -7 -3 -8 4 -4
7 4 12 2 12 -5 0 -7 2 -10 5 -7 9 9 -6 38 -20 38 -7 0 -19 -8 -26 -17z"/>
<path d="M2710 4221 c0 -5 7 -12 16 -15 14 -5 15 -4 4 9 -14 17 -20 19 -20 6z"/>
<path d="M4163 4182 c-17 -38 -96 -161 -127 -198 -14 -18 -26 -37 -26 -43 0
-6 -4 -11 -9 -11 -5 0 -24 -20 -42 -46 -19 -25 -63 -81 -99 -126 -36 -44 -76
-95 -90 -113 -14 -18 -51 -63 -84 -99 -37 -42 -56 -71 -52 -81 6 -16 2 -18
175 92 83 52 265 160 311 185 51 26 60 44 59 112 0 39 -3 54 -8 42 -14 -36
-21 0 -20 96 2 117 17 163 20 63 2 -67 3 -65 9 30 6 110 1 139 -17 97z m-68
-172 c-33 -46 -57 -69 -38 -37 20 34 68 95 72 92 2 -2 -13 -27 -34 -55z m15
-53 c0 -2 -13 -16 -30 -32 -16 -16 -30 -25 -30 -21 0 4 12 18 26 31 25 24 34
29 34 22z m-60 -102 c0 -8 -7 -15 -16 -15 -14 0 -14 3 -4 15 7 8 14 15 16 15
2 0 4 -7 4 -15z m111 -48 c-13 -13 -15 11 -4 40 7 16 8 15 11 -6 2 -13 -1 -28
-7 -34z m-111 -22 c-7 -9 -15 -13 -18 -10 -3 2 1 11 8 20 7 9 15 13 18 10 3
-2 -1 -11 -8 -20z m31 -25 c-13 -11 -28 -20 -35 -20 -6 1 0 10 13 20 13 11 28
20 35 20 6 -1 0 -10 -13 -20z m-169 -82 c-12 -12 -25 -18 -29 -14 -4 4 3 16
16 27 31 25 41 15 13 -13z"/>
<path d="M2842 4193 c15 -4 13 -8 -12 -30 -17 -13 -30 -29 -30 -34 0 -11 60
-42 68 -35 3 3 -1 6 -9 6 -8 1 -3 7 11 15 16 9 19 14 10 15 -9 0 -21 -5 -28
-12 -8 -8 -15 -9 -23 -1 -7 7 -1 19 20 41 25 24 28 31 15 36 -9 3 -21 5 -27 5
-7 -1 -4 -3 5 -6z"/>
<path d="M2901 4177 c-6 -6 -11 -14 -11 -18 0 -13 39 -6 44 7 6 17 -19 25 -33
11z"/>
<path d="M2670 4180 c-8 -26 -7 -41 2 -32 6 6 8 16 5 24 -3 7 -6 11 -7 8z"/>
<path d="M1960 4140 c0 -11 4 -20 9 -20 5 0 7 9 4 20 -3 11 -7 20 -9 20 -2 0
-4 -9 -4 -20z"/>
<path d="M2686 4129 c6 -11 41 -12 47 -1 3 4 -8 7 -24 8 -15 1 -26 -3 -23 -7z"/>
<path d="M2651 4100 c7 -14 12 -32 11 -40 -2 -12 -1 -12 6 -1 8 11 10 11 15 0
3 -9 6 -10 6 -2 1 7 -11 25 -25 40 -24 27 -25 27 -13 3z"/>
<path d="M3628 4066 c-10 -7 -18 -19 -18 -25 0 -18 33 3 36 23 3 19 4 19 -18
2z"/>
<path d="M2915 4059 c-4 -6 -5 -12 -2 -15 2 -3 7 2 10 11 7 17 1 20 -8 4z"/>
<path d="M2700 4044 c0 -9 -5 -12 -12 -8 -7 4 -8 3 -4 -5 4 -6 11 -9 16 -6 4
3 11 -1 13 -7 3 -7 6 -3 6 9 1 12 7 24 14 26 6 3 2 6 -10 6 -15 1 -23 -5 -23
-15z"/>
<path d="M3921 4019 c-7 -12 -10 -23 -8 -26 3 -3 11 5 17 17 6 12 10 23 8 25
-2 2 -10 -5 -17 -16z"/>
<path d="M3948 3978 c-38 -47 -52 -68 -45 -68 3 0 23 25 46 55 49 65 48 73 -1
13z"/>
<path d="M1182 3999 c8 -27 208 -107 241 -96 5 1 -15 8 -44 15 -72 18 -127 40
-168 70 -20 15 -32 20 -29 11z"/>
<path d="M4172 3950 c0 -19 2 -27 5 -17 2 9 2 25 0 35 -3 9 -5 1 -5 -18z"/>
<path d="M1191 3793 c10 -249 21 -393 30 -388 4 3 24 -4 43 -16 20 -11 36 -17
36 -12 0 4 -17 17 -37 28 -21 11 -39 29 -42 40 -3 19 -2 19 16 3 23 -21 134
-48 164 -41 12 3 24 1 28 -6 8 -12 119 -44 351 -102 69 -17 200 -52 292 -79
154 -45 208 -52 208 -28 0 5 -27 50 -60 100 -33 49 -60 98 -60 108 0 10 28 59
61 109 34 49 59 96 56 103 -2 7 -44 24 -93 37 -74 20 -363 101 -504 141 -70
20 -214 49 -222 44 -4 -3 -8 -1 -8 3 0 5 -39 21 -87 37 -98 31 -144 53 -156
73 -19 31 -22 4 -16 -154z m142 49 c37 -16 78 -39 91 -51 47 -45 39 -120 -19
-170 -26 -21 -34 -23 -94 -17 -74 8 -78 10 -62 30 8 10 9 16 1 21 -24 15 -7
24 20 10 37 -19 114 -20 130 0 6 8 14 32 17 54 6 40 5 41 -43 62 -34 14 -62
19 -91 16 -31 -3 -43 -1 -43 8 0 8 6 15 13 18 10 4 10 7 0 18 -17 17 -16 29 0
29 7 0 43 -13 80 -28z m-23 -99 c0 -54 -10 -76 -31 -68 -10 4 -13 19 -11 56 3
41 6 48 18 38 11 -9 14 -8 14 5 0 9 2 16 5 16 3 0 5 -21 5 -47z m353 -9 c23
-9 57 -17 76 -20 39 -5 51 -11 51 -26 0 -5 -7 -7 -16 -4 -12 5 -15 2 -10 -10
5 -13 2 -15 -16 -9 -79 24 -127 35 -161 35 -31 0 -38 3 -33 15 3 9 -1 18 -9
21 -8 4 -15 11 -15 16 0 13 76 2 133 -18z m-303 -19 c-7 -8 -18 -15 -24 -15
-6 0 -2 7 8 15 25 19 32 19 16 0z m505 -23 c-3 -3 -11 0 -18 7 -9 10 -8 11 6
5 10 -3 15 -9 12 -12z m-204 -56 c5 -6 9 0 9 15 1 18 3 20 9 9 5 -8 11 -60 13
-115 l4 -100 -41 2 c-34 2 -36 1 -15 -6 14 -5 48 -10 75 -10 58 -1 91 -16 62
-27 -14 -5 -15 -9 -6 -20 16 -19 4 -18 -111 10 -63 15 -95 28 -95 37 0 8 -4
17 -10 21 -22 16 5 18 29 3 24 -16 26 -16 26 -1 0 9 6 16 14 16 20 0 26 35 21
130 -2 47 -2 76 1 65 3 -11 10 -24 15 -29z m-136 24 c-3 -5 -13 -10 -21 -10
-8 0 -14 -4 -14 -10 0 -5 -5 -10 -11 -10 -16 0 0 20 25 30 28 12 28 12 21 0z
m387 -1 c11 -6 31 -13 45 -15 13 -3 48 -12 76 -22 45 -15 53 -22 66 -56 13
-33 13 -44 0 -80 -17 -49 -49 -68 -102 -59 -20 3 -34 9 -32 14 3 4 0 11 -6 15
-6 3 -14 2 -18 -4 -4 -6 -20 -8 -41 -3 -23 4 -31 9 -22 15 7 4 10 16 7 27 -6
17 -1 16 45 -8 43 -22 57 -25 87 -17 27 7 39 16 46 37 21 63 -14 94 -116 104
-59 6 -80 19 -56 34 10 6 11 9 2 9 -7 0 -13 5 -13 10 0 13 6 13 32 -1z m-326
-18 c-8 -12 -66 -32 -66 -22 0 4 15 13 33 19 17 5 33 10 35 11 2 1 1 -3 -2 -8z
m511 -7 c-3 -3 -12 -4 -19 -1 -8 3 -5 6 6 6 11 1 17 -2 13 -5z m-799 -61 c-1
-10 2 -35 6 -55 4 -25 3 -38 -4 -38 -5 0 -10 5 -10 10 0 6 -8 10 -17 8 -18 -3
-20 16 -8 70 6 26 34 30 33 5z m647 -71 c-5 -14 -7 -14 -21 0 -12 11 -14 25
-9 47 4 17 11 29 16 25 5 -3 10 1 11 8 1 7 3 -4 5 -26 3 -21 2 -45 -2 -54z
m-528 36 c8 5 62 -82 56 -91 -3 -5 -9 -4 -13 3 -5 8 -9 7 -14 -5 -5 -14 -9
-15 -21 -5 -8 7 -15 17 -15 22 0 6 -11 32 -25 60 -31 62 -31 67 1 37 14 -13
28 -23 31 -21z m-7 21 c0 -6 -4 -7 -10 -4 -5 3 -10 11 -10 16 0 6 5 7 10 4 6
-3 10 -11 10 -16z m130 -4 c-7 -8 -22 -15 -34 -15 -20 1 -20 2 4 15 33 19 46
19 30 0z m274 -9 c-7 -19 -34 -29 -34 -12 0 16 10 26 26 26 8 0 11 -6 8 -14z
m-250 -31 c-10 -8 -25 -15 -33 -15 -11 0 -9 4 5 15 10 8 25 15 33 15 11 0 9
-4 -5 -15z m445 -21 c-15 -18 -22 -13 -13 10 3 9 10 13 16 10 5 -3 4 -12 -3
-20z m-259 -24 c0 -5 -5 -10 -11 -10 -5 0 -7 5 -4 10 3 6 8 10 11 10 2 0 4 -4
4 -10z m189 -67 c1 9 5 17 10 17 11 0 25 -86 16 -100 -9 -15 -35 7 -35 29 -1
13 -3 13 -15 -3 -28 -37 -27 -6 2 74 4 11 8 8 13 -10 5 -16 8 -19 9 -7z m-99
-16 c0 -2 -10 -12 -22 -23 l-23 -19 19 23 c18 21 26 27 26 19z m200 -22 c-22
-24 -50 -34 -50 -17 0 8 49 40 64 41 5 1 -1 -10 -14 -24z m120 -20 c0 -8 -7
-15 -15 -15 -9 0 -12 6 -9 15 4 8 10 15 15 15 5 0 9 -7 9 -15z m-10 -70 c-7
-8 -20 -15 -28 -15 -13 0 -12 3 4 15 25 19 40 19 24 0z"/>
<path d="M1280 3626 c0 -2 7 -6 15 -10 8 -3 15 -1 15 4 0 6 -7 10 -15 10 -8 0
-15 -2 -15 -4z"/>
<path d="M1650 3484 c0 -8 5 -12 10 -9 6 3 10 10 10 16 0 5 -4 9 -10 9 -5 0
-10 -7 -10 -16z"/>
<path d="M1613 3423 c9 -2 23 -2 30 0 6 3 -1 5 -18 5 -16 0 -22 -2 -12 -5z"/>
<path d="M2035 3450 c-3 -5 -2 -10 4 -10 5 0 13 5 16 10 3 6 2 10 -4 10 -5 0
-13 -4 -16 -10z"/>
<path d="M2688 3908 c5 -5 16 -8 23 -6 8 3 3 7 -10 11 -17 4 -21 3 -13 -5z"/>
<path d="M1460 3889 c14 -7 81 -27 150 -45 218 -57 624 -175 677 -196 18 -6
35 -18 37 -25 3 -7 -1 -10 -9 -7 -9 4 -12 0 -9 -14 7 -24 -86 -173 -103 -167
-16 5 -16 -7 -1 -40 11 -25 30 -35 25 -13 -1 6 6 14 16 16 9 2 17 -2 17 -9 0
-7 -3 -9 -7 -6 -3 4 -12 -1 -19 -11 -10 -14 -10 -21 2 -40 8 -12 33 -57 55
-100 40 -74 41 -76 38 -37 -3 33 -1 40 16 43 11 2 30 8 42 14 12 6 38 8 57 5
20 -3 36 -3 37 1 0 4 3 32 5 62 3 29 14 74 26 100 21 47 66 120 82 131 19 15
-4 39 -36 39 -42 0 -47 -4 -93 -65 -51 -67 -90 -148 -105 -217 -10 -50 -15
-58 -34 -58 -13 0 -28 11 -38 28 -14 23 -14 31 -3 53 8 14 16 36 18 50 2 13
13 44 24 69 14 32 17 47 9 52 -7 5 -4 8 7 8 9 0 17 3 17 8 0 4 18 26 39 50 37
41 38 43 19 53 -15 8 -19 8 -14 0 10 -15 -7 -14 -22 1 -10 10 -15 10 -22 -2
-9 -13 -10 -13 -10 0 0 8 -9 21 -20 28 -30 19 -613 187 -785 227 -33 7 -71 16
-85 20 l-25 6 25 -12z"/>
<path d="M1915 3880 c4 -6 11 -8 16 -5 14 9 11 15 -7 15 -8 0 -12 -5 -9 -10z"/>
<path d="M2810 3876 c0 -2 9 -6 20 -9 11 -3 18 -1 14 4 -5 9 -34 13 -34 5z"/>
<path d="M3805 3870 c-3 -6 1 -7 9 -4 18 7 21 14 7 14 -6 0 -13 -4 -16 -10z"/>
<path d="M2894 3855 c11 -8 31 -15 45 -14 24 0 23 2 -9 14 -46 18 -59 18 -36
0z"/>
<path d="M2998 3833 c6 -2 18 -2 25 0 6 3 1 5 -13 5 -14 0 -19 -2 -12 -5z"/>
<path d="M3575 3720 c-3 -6 1 -7 9 -4 18 7 21 14 7 14 -6 0 -13 -4 -16 -10z"/>
<path d="M3581 3681 c-17 -24 -18 -30 -6 -35 18 -7 27 7 18 30 -5 13 -3 16 10
11 11 -4 14 -2 10 9 -7 19 -9 18 -32 -15z"/>
<path d="M3656 3673 c-6 -14 -5 -15 5 -6 7 7 10 15 7 18 -3 3 -9 -2 -12 -12z"/>
<path d="M3602 3610 c-31 -41 -28 -48 4 -10 15 17 24 33 22 35 -2 3 -14 -9
-26 -25z"/>
<path d="M4013 3579 c-24 -9 -30 -25 -32 -88 -1 -24 -9 -60 -17 -80 -9 -20
-17 -40 -19 -46 -13 -42 -18 -55 -22 -55 -7 0 -64 41 -81 57 -25 24 -73 44
-92 38 -22 -7 -64 -89 -56 -110 3 -8 31 -22 63 -31 49 -14 108 -38 121 -49 5
-5 -74 -166 -91 -187 -8 -10 -19 -18 -24 -18 -15 0 -43 -34 -43 -52 0 -8 9
-23 19 -32 16 -15 18 -23 9 -47 -21 -60 17 -79 70 -34 20 16 40 51 57 98 15
39 38 96 51 124 13 29 26 64 30 78 5 21 11 24 28 19 31 -10 45 -23 67 -65 27
-53 54 -59 90 -19 36 39 39 84 7 111 -13 10 -29 18 -37 19 -19 0 -91 42 -91
52 0 11 77 147 94 168 23 27 36 79 26 105 -8 20 -16 25 -45 25 -19 0 -35 4
-35 9 0 14 -23 19 -47 10z m38 -57 c0 -20 3 -32 5 -25 3 7 12 9 21 6 13 -5 13
-3 4 14 -8 17 -7 22 5 27 22 8 44 -11 44 -39 0 -12 -13 -40 -29 -62 -16 -22
-39 -60 -51 -84 -12 -24 -28 -51 -35 -59 -6 -8 -18 -31 -25 -50 -8 -19 -34
-75 -58 -125 -24 -49 -55 -121 -68 -160 -26 -74 -65 -125 -97 -125 -16 0 -18
4 -12 23 4 12 9 36 10 52 2 24 7 30 24 28 14 -2 20 1 16 8 -4 6 -19 7 -36 4
-41 -9 -37 9 10 53 41 38 77 103 151 272 51 114 59 140 66 205 6 49 29 90 45
79 5 -3 9 -22 10 -42z m-250 -150 c14 -9 46 -32 71 -51 44 -32 45 -34 35 -67
-9 -31 -27 -47 -27 -25 0 9 -85 46 -133 57 -35 8 -45 24 -19 31 13 3 18 11 15
19 -8 20 9 17 48 -9 58 -39 66 -40 24 -3 -22 20 -51 36 -65 36 -24 1 -24 1 -6
15 25 19 25 19 57 -3z m342 -200 c21 -18 22 -48 3 -55 -9 -4 -16 3 -20 16 -3
12 -8 18 -11 15 -4 -3 -1 -16 5 -28 15 -28 6 -50 -19 -50 -14 0 -27 13 -41 41
-12 22 -34 48 -51 57 -38 22 -39 46 -1 38 22 -5 24 -4 9 4 -9 6 -15 15 -12 20
6 10 110 -34 138 -58z"/>
<path d="M4026 3497 c3 -10 9 -15 12 -12 3 3 0 11 -7 18 -10 9 -11 8 -5 -6z"/>
<path d="M3995 3354 c-8 -21 -14 -42 -12 -48 2 -5 11 10 21 33 9 24 15 46 12
48 -3 3 -12 -12 -21 -33z"/>
<path d="M3847 3026 c-4 -10 -7 -25 -6 -34 0 -11 4 -9 10 7 5 13 8 29 6 35 -2
5 -6 2 -10 -8z"/>
<path d="M2644 3520 c-32 -31 -72 -146 -76 -218 -3 -40 -1 -44 40 -68 23 -14
43 -20 43 -15 2 14 3 17 19 71 7 25 13 48 12 53 -1 4 3 7 8 7 6 0 10 9 10 20
0 11 7 23 15 26 8 4 15 12 15 20 0 8 5 14 10 14 6 0 10 7 10 15 0 8 3 15 8 15
4 0 20 11 36 25 26 22 27 25 10 31 -11 4 -34 13 -52 20 -18 7 -30 9 -27 4 3
-6 1 -10 -5 -10 -6 0 -8 -4 -5 -10 3 -5 1 -10 -5 -10 -6 0 -9 8 -6 18 10 29
-28 24 -60 -8z"/>
<path d="M2903 3456 c-108 -56 -183 -157 -183 -248 0 -40 -15 -52 -28 -23 -6
14 -16 25 -22 25 -7 0 -4 -7 4 -16 9 -8 16 -19 16 -24 0 -12 99 -85 125 -93
18 -6 20 -2 21 58 1 72 23 139 67 205 17 25 30 50 30 56 0 6 5 11 11 11 23 0
85 45 80 58 -10 26 -60 22 -121 -9z"/>
<path d="M3060 3404 c-25 -19 -49 -44 -54 -55 -5 -10 -14 -19 -19 -19 -6 0 0
-11 13 -25 l24 -25 28 27 c15 15 28 23 28 19 0 -5 7 -3 16 4 16 14 106 32 99
20 -2 -4 7 -12 20 -18 33 -15 33 -51 0 -90 -33 -40 -44 -70 -51 -151 -5 -56
-2 -75 14 -107 38 -74 88 -97 76 -34 -10 49 30 160 77 213 51 59 84 62 128 15
33 -35 35 -32 22 45 -4 26 -5 50 -1 52 21 13 -16 107 -39 103 -9 -1 -32 3 -51
10 -49 16 -228 52 -259 52 -15 0 -46 -16 -71 -36z m-10 -58 c0 -2 -7 -6 -15
-10 -8 -3 -15 -1 -15 4 0 6 7 10 15 10 8 0 15 -2 15 -4z"/>
<path d="M1320 3370 c0 -5 5 -10 11 -10 8 0 8 -5 -1 -15 -12 -14 -7 -20 15
-15 5 1 6 -2 2 -6 -18 -18 -35 -12 -31 12 2 13 0 24 -5 24 -4 0 -9 -20 -9 -45
-1 -29 3 -45 11 -45 8 0 8 -3 2 -8 -9 -6 -12 -26 -5 -34 6 -9 5 -48 -2 -48 -4
0 -3 -9 4 -20 7 -10 15 -15 18 -11 7 11 25 -10 25 -29 0 -26 30 -17 34 10 1
14 8 28 15 32 8 6 8 12 -1 27 -11 17 -10 19 1 15 8 -3 20 6 28 23 53 102 58
104 144 78 27 -8 83 -24 124 -36 41 -12 104 -30 139 -41 l63 -21 -31 -24 c-33
-26 -91 -129 -91 -160 1 -10 7 -2 14 18 21 60 50 103 86 126 34 24 80 31 80
13 0 -5 -4 -10 -10 -10 -5 0 -10 -5 -10 -11 0 -8 5 -7 16 2 27 22 34 -8 13
-56 -15 -33 -18 -60 -15 -131 5 -116 -2 -134 -49 -130 -20 2 -38 6 -42 9 -6 7
-33 -17 -33 -31 0 -15 -49 -37 -60 -26 -12 12 -15 81 -5 117 6 21 4 27 -10 27
-10 0 -13 5 -9 12 4 7 3 8 -5 4 -9 -6 -9 -11 -1 -21 7 -9 8 -14 0 -17 -9 -3
-14 -49 -9 -110 1 -15 8 -29 15 -32 8 -3 11 -12 8 -21 -3 -8 -10 -13 -14 -10
-5 3 -12 0 -16 -6 -4 -8 -3 -9 4 -5 17 10 15 -27 -2 -69 -8 -19 -20 -35 -26
-35 -6 0 -8 -4 -5 -10 3 -5 1 -10 -6 -10 -7 0 -9 -3 -6 -7 4 -3 -9 -21 -28
-40 -19 -18 -30 -33 -25 -33 5 0 2 -13 -6 -28 -7 -16 -12 -38 -10 -49 3 -12
-1 -24 -9 -27 -8 -3 -12 0 -10 7 12 42 15 68 5 62 -5 -3 -10 -1 -10 4 0 6 -3
11 -7 11 -5 0 -8 -29 -7 -65 1 -41 -3 -65 -10 -65 -6 0 -4 -5 4 -10 13 -8 12
-10 -4 -10 -17 0 -18 -2 -5 -12 21 -18 42 -68 26 -63 -14 5 -49 -19 -46 -31 4
-23 -2 -26 -16 -8 -14 19 -14 18 -15 -3 0 -13 3 -23 8 -24 21 -2 44 -8 49 -13
3 -2 16 -1 29 4 18 7 22 6 17 -5 -3 -8 -11 -16 -19 -16 -8 -1 -18 -3 -24 -4
-5 -1 -13 -3 -16 -4 -3 0 2 -8 10 -17 9 -8 20 -13 25 -9 5 3 12 1 16 -5 4 -6
12 -7 18 -4 8 4 7 2 -1 -7 -11 -12 -14 -12 -23 1 -9 13 -10 13 -6 0 2 -8 13
-15 24 -15 11 -1 28 -7 37 -14 14 -12 16 -10 16 13 0 14 -5 26 -11 26 -8 0 -7
5 2 16 20 24 15 138 -9 216 -15 48 -18 75 -12 101 9 41 65 132 82 132 6 0 19
29 30 65 25 81 34 92 68 85 19 -4 31 0 45 15 20 23 48 26 62 8 5 -7 15 -37 21
-67 11 -47 10 -55 -4 -66 -13 -9 -15 -21 -10 -58 4 -26 11 -49 17 -52 14 -9
11 -25 -5 -25 -31 0 -37 -25 -17 -81 40 -113 84 -195 129 -242 l47 -48 0 -157
c0 -144 2 -160 21 -187 12 -16 25 -41 29 -55 4 -14 18 -46 30 -72 19 -39 20
-48 8 -52 -23 -9 -35 -7 -28 4 4 6 11 8 16 5 15 -10 10 12 -6 25 -8 7 -12 16
-9 21 3 5 1 9 -5 9 -5 0 -11 -6 -14 -12 -2 -7 -10 7 -17 32 -6 25 -16 55 -20
67 -6 14 -5 23 3 26 6 2 4 6 -5 10 -14 5 -16 -1 -12 -36 5 -51 37 -143 59
-167 13 -14 23 -16 46 -10 26 8 31 5 43 -18 8 -15 30 -43 49 -62 25 -24 32
-37 24 -42 -8 -5 -6 -8 6 -8 10 0 17 -7 17 -17 0 -11 -3 -14 -8 -7 -4 6 -17
14 -29 18 -13 4 -20 13 -17 21 3 7 0 16 -5 20 -6 3 -9 11 -6 16 3 5 -1 6 -10
3 -10 -4 -23 3 -36 20 -11 14 -25 26 -30 26 -6 0 11 -27 36 -60 27 -36 54 -60
65 -60 10 0 22 -5 25 -10 4 -6 10 -8 15 -5 5 3 18 -5 30 -17 12 -13 27 -24 33
-24 7 -1 18 -2 26 -3 11 -1 11 -4 1 -16 -7 -8 -16 -12 -21 -9 -5 3 -9 0 -9 -6
0 -11 41 -30 66 -30 10 0 12 5 7 13 -16 26 -12 39 10 33 70 -21 161 -17 256
10 20 6 22 4 16 -15 -7 -24 -5 -25 30 -9 25 11 35 38 14 38 -5 0 -8 -4 -4 -9
3 -5 1 -12 -4 -15 -5 -4 -13 -1 -17 5 -8 14 14 29 44 29 24 0 28 -10 10 -28
-8 -8 -8 -12 -1 -12 11 0 28 29 25 43 -1 4 2 7 8 7 5 0 10 -4 10 -10 0 -5 5
-10 10 -10 6 0 10 7 10 15 0 8 7 15 15 15 8 0 15 -4 15 -10 0 -5 4 -10 9 -10
5 0 8 7 7 16 -1 12 15 23 49 36 28 11 74 31 103 44 29 13 58 21 64 18 7 -4 8
-2 4 4 -4 7 -1 12 8 12 9 0 28 13 42 30 15 16 35 32 45 35 11 4 19 14 19 23 0
9 12 55 25 101 14 47 25 87 25 89 0 12 -33 -25 -61 -69 -20 -32 -47 -58 -72
-71 -23 -11 -63 -36 -90 -54 -27 -19 -82 -43 -121 -55 -39 -11 -87 -27 -106
-36 -19 -9 -71 -24 -116 -34 -124 -27 -211 -12 -359 64 -70 36 -145 98 -145
120 0 7 -7 26 -16 42 -27 51 -37 135 -35 271 2 104 0 138 -14 170 -10 24 -16
62 -16 99 1 34 -5 79 -13 102 -8 23 -12 43 -10 46 2 2 5 20 6 40 1 20 5 34 10
31 4 -3 8 0 8 6 0 7 -7 10 -15 7 -19 -8 -27 7 -31 52 -5 59 -30 150 -47 169
-26 28 -49 93 -43 118 8 30 39 39 77 20 28 -14 31 -14 50 5 12 12 33 19 54 19
29 0 39 -6 53 -30 l17 -29 20 25 c11 14 36 29 55 34 l35 8 -39 -1 c-27 -1 -42
4 -52 18 -13 17 -15 17 -32 2 -24 -22 -122 -24 -122 -3 0 24 -20 29 -40 11
-27 -24 -81 -16 -97 15 -11 22 -11 235 0 246 2 2 29 -3 59 -11 127 -33 216
-43 244 -27 15 8 10 10 -21 5 -38 -5 -253 37 -365 72 -158 48 -258 76 -350
100 -58 14 -136 35 -175 45 -81 23 -85 24 -85 10z m657 -362 c-3 -7 -5 -2 -5
12 0 14 2 19 5 13 2 -7 2 -19 0 -25z m57 -334 c11 -27 7 -37 -9 -24 -16 14
-20 40 -6 40 5 0 12 -7 15 -16z m-66 -95 c-3 -8 -7 -3 -11 10 -4 17 -3 21 5
13 5 -5 8 -16 6 -23z m31 4 c0 -25 -1 -25 -8 -8 -5 11 -7 23 -4 28 8 14 13 7
12 -20z m-34 -83 c3 -5 -1 -10 -10 -10 -9 0 -13 5 -10 10 3 6 8 10 10 10 2 0
7 -4 10 -10z m105 -179 c5 -17 5 -31 0 -31 -10 0 -20 26 -20 52 0 28 8 19 20
-21z m-430 -136 c11 -13 10 -14 -4 -9 -9 3 -16 10 -16 15 0 13 6 11 20 -6z
m-20 -15 c8 -5 11 -10 5 -10 -5 0 -17 5 -25 10 -8 5 -10 10 -5 10 6 0 17 -5
25 -10z m827 -674 c4 -3 -3 -6 -15 -6 -12 0 -22 -4 -22 -10 0 -16 -46 -12 -61
6 -10 12 -10 17 0 23 13 8 87 -2 98 -13z m162 -30 c-12 -10 -59 -15 -59 -6 0
5 14 10 32 10 17 0 29 -2 27 -4z m-9 -56 c0 -5 9 -10 20 -10 11 0 20 -4 20
-10 0 -5 -19 -10 -42 -9 -24 0 -37 3 -30 6 6 2 12 11 12 19 0 8 5 14 10 14 6
0 10 -4 10 -10z"/>
<path d="M2490 3250 c0 -5 14 -10 31 -10 17 0 28 4 24 10 -3 6 -17 10 -31 10
-13 0 -24 -4 -24 -10z"/>
<path d="M2914 3226 c-17 -28 -44 -119 -44 -154 0 -13 -4 -20 -10 -17 -5 3
-10 2 -10 -4 0 -5 4 -13 10 -16 5 -3 16 -27 23 -53 13 -42 17 -47 43 -46 33 0
32 -1 16 109 -7 45 -8 84 -2 110 12 49 12 65 3 64 -20 -3 -24 2 -13 16 7 8 10
15 6 15 -3 0 -13 -11 -22 -24z"/>
<path d="M3069 3243 c-1 -4 -1 -11 0 -15 0 -5 -4 -7 -10 -5 -6 1 -18 -16 -26
-38 -14 -39 -13 -55 3 -178 12 -90 -15 -149 -46 -99 -9 15 -10 14 -8 -8 2 -14
10 -25 18 -26 40 -1 60 -16 60 -43 0 -21 8 -32 34 -46 39 -21 62 -65 72 -135
6 -46 18 -62 40 -53 7 2 22 -1 34 -7 15 -8 20 -8 16 -1 -4 6 -3 11 2 11 6 0 9
-25 7 -55 -2 -31 1 -53 6 -49 5 3 9 0 9 -5 0 -6 -4 -11 -10 -11 -11 0 -24 -61
-23 -111 1 -40 27 -99 45 -99 10 0 4 187 -9 250 -4 20 -2 22 6 10 8 -11 11
-11 11 -2 0 7 -7 15 -15 18 -8 4 -15 10 -15 16 0 5 5 6 10 3 14 -9 12 23 -6
74 -23 68 -44 102 -56 95 -7 -5 -8 -3 -3 5 4 8 -4 25 -22 44 -48 51 -73 92
-77 128 -3 19 -11 61 -19 94 -14 62 -15 123 -4 163 4 12 9 31 12 41 4 13 -1
23 -15 31 -11 6 -21 7 -21 3z m11 -364 c0 -6 -4 -7 -10 -4 -5 3 -10 11 -10 16
0 6 5 7 10 4 6 -3 10 -11 10 -16z m114 -256 c-17 -17 -18 -17 -11 0 4 10 7 24
7 30 0 8 3 8 11 0 9 -9 7 -16 -7 -30z"/>
<path d="M1725 3190 c-3 -6 1 -7 9 -4 18 7 21 14 7 14 -6 0 -13 -4 -16 -10z"/>
<path d="M2376 3166 c7 -19 48 -22 42 -3 -3 6 -14 13 -26 15 -16 3 -20 -1 -16
-12z"/>
<path d="M2566 3159 c16 -18 65 -49 77 -49 2 0 4 7 4 15 0 10 -6 13 -17 10
-10 -3 -26 5 -40 20 -28 30 -51 34 -24 4z"/>
<path d="M1461 3134 c0 -11 3 -14 6 -6 3 7 2 16 -1 19 -3 4 -6 -2 -5 -13z"/>
<path d="M1451 3094 c0 -11 3 -14 6 -6 3 7 2 16 -1 19 -3 4 -6 -2 -5 -13z"/>
<path d="M1908 3090 c-4 -14 -8 -40 -8 -57 0 -18 -5 -33 -11 -33 -8 0 -7 -5 1
-15 21 -26 31 -2 28 66 -2 47 -5 57 -10 39z"/>
<path d="M1310 3065 c0 -8 2 -15 4 -15 2 0 6 7 10 15 3 8 1 15 -4 15 -6 0 -10
-7 -10 -15z"/>
<path d="M1708 3056 c-3 -14 -2 -23 3 -21 4 3 10 -1 12 -7 3 -7 6 -4 6 7 0 11
-3 26 -8 33 -6 10 -10 7 -13 -12z"/>
<path d="M3460 3060 c-22 -42 -1 -225 25 -217 5 2 10 11 9 20 0 10 -1 31 -2
48 -1 17 -6 28 -12 24 -5 -3 -10 -1 -10 4 0 6 4 11 9 11 9 0 8 116 -1 126 -4
3 -12 -4 -18 -16z"/>
<path d="M1442 3040 c0 -14 2 -19 5 -12 2 6 2 18 0 25 -3 6 -5 1 -5 -13z"/>
<path d="M2537 3054 c-4 -4 -7 -14 -7 -23 0 -11 3 -12 11 -4 6 6 10 16 7 23
-2 6 -7 8 -11 4z"/>
<path d="M1323 3034 c-3 -8 0 -21 7 -27 10 -10 12 -8 7 6 -4 10 -3 15 2 12 5
-3 12 -1 15 4 3 5 -1 12 -9 15 -9 3 -18 -1 -22 -10z"/>
<path d="M2095 3040 c3 -5 8 -10 11 -10 2 0 4 5 4 10 0 6 -5 10 -11 10 -5 0
-7 -4 -4 -10z"/>
<path d="M2070 3030 c0 -5 5 -10 11 -10 5 0 7 5 4 10 -3 6 -8 10 -11 10 -2 0
-4 -4 -4 -10z"/>
<path d="M2160 3030 c0 -5 5 -10 11 -10 5 0 7 5 4 10 -3 6 -8 10 -11 10 -2 0
-4 -4 -4 -10z"/>
<path d="M2300 3020 c0 -5 5 -10 11 -10 5 0 7 5 4 10 -3 6 -8 10 -11 10 -2 0
-4 -4 -4 -10z"/>
<path d="M2340 3021 c0 -9 34 -21 60 -21 11 1 10 4 -4 15 -22 16 -56 20 -56 6z"/>
<path d="M3346 3017 c3 -10 9 -15 12 -12 3 3 0 11 -7 18 -10 9 -11 8 -5 -6z"/>
<path d="M3315 3010 c-3 -5 1 -10 10 -10 9 0 13 5 10 10 -3 6 -8 10 -10 10 -2
0 -7 -4 -10 -10z"/>
<path d="M1445 2950 c6 -68 82 -320 96 -320 5 0 6 7 3 15 -5 11 1 15 20 15 14
0 26 -5 26 -10 0 -10 18 -9 74 5 21 6 27 5 22 -4 -4 -6 0 -11 9 -11 12 0 15 5
11 16 -3 9 -9 27 -12 40 -3 13 -14 26 -23 29 -25 7 -118 183 -129 241 -7 32
-10 39 -11 22 -1 -20 -6 -28 -20 -28 -10 0 -21 -7 -25 -15 -7 -18 5 -20 23 -2
10 10 11 9 6 -5 -4 -9 -15 -18 -26 -21 -10 -3 -17 -1 -14 3 3 5 1 11 -4 15 -6
3 -8 12 -5 20 3 8 -2 24 -11 37 -15 22 -16 20 -10 -42z m56 -73 c-10 -9 -11
-8 -5 6 3 10 9 15 12 12 3 -3 0 -11 -7 -18z m35 -31 c-1 -14 4 -20 16 -18 9 1
19 -2 22 -6 3 -5 -5 -9 -18 -9 -16 0 -28 8 -35 24 -14 30 -14 30 2 30 7 0 13
-10 13 -21z m62 -64 c2 -7 -1 -12 -8 -12 -6 0 -8 5 -5 10 3 6 4 10 1 10 -3 0
-7 -4 -11 -9 -3 -6 10 -17 30 -27 32 -15 34 -18 19 -29 -22 -16 -11 -50 14
-41 16 6 16 5 0 -7 -10 -8 -15 -17 -12 -20 7 -7 -15 -3 -39 8 -13 5 -15 11 -7
20 8 9 6 14 -5 19 -10 3 -14 2 -9 -5 3 -6 -3 -5 -15 3 -12 7 -21 18 -21 24 0
7 -7 14 -15 18 -20 7 -19 36 1 36 8 0 13 4 9 9 -7 12 25 19 49 11 11 -4 22
-12 24 -18z"/>
<path d="M1570 2746 c0 -2 11 -6 25 -8 13 -3 22 -1 19 3 -5 9 -44 13 -44 5z"/>
<path d="M1725 3000 c3 -5 8 -10 11 -10 2 0 4 5 4 10 0 6 -5 10 -11 10 -5 0
-7 -4 -4 -10z"/>
<path d="M3310 2960 c0 -20 5 -30 14 -30 12 0 13 6 5 30 -6 17 -13 30 -15 30
-2 0 -4 -13 -4 -30z"/>
<path d="M2546 2974 c8 -4 8 -15 -1 -42 -18 -51 -38 -61 -77 -39 -28 16 -32
16 -48 2 -17 -16 -17 -20 16 -85 35 -71 58 -93 97 -90 48 4 67 -1 91 -25 67
-67 224 -90 185 -28 -13 21 -7 53 11 53 5 0 10 -6 10 -14 0 -7 7 -19 15 -26
12 -10 16 -8 23 10 7 19 9 20 21 6 23 -28 129 -18 149 14 14 23 5 53 -15 46
-8 -3 -11 -1 -8 5 4 5 2 16 -4 23 -6 7 -8 22 -4 31 4 12 3 16 -4 12 -6 -4 -24
-2 -42 3 -30 8 -31 8 -24 -18 3 -14 12 -37 19 -51 14 -25 13 -26 -21 -29 -19
-2 -35 -7 -35 -12 0 -5 6 -7 14 -4 8 3 17 1 20 -4 3 -5 -4 -9 -15 -8 -11 0
-24 7 -28 15 -5 8 -18 12 -29 9 -13 -4 -23 0 -26 8 -12 32 -60 -5 -53 -42 3
-15 0 -21 -10 -17 -7 3 -10 9 -7 14 3 5 -2 6 -10 3 -9 -3 -16 -1 -16 4 0 7
-10 8 -30 2 -16 -5 -31 -5 -33 -2 -2 4 -10 36 -16 72 -18 94 -38 137 -72 151
-24 9 -27 14 -17 26 9 11 9 16 -3 24 -8 5 -18 8 -24 8 -5 0 -5 -3 1 -5z m13
-149 c-34 -47 -59 -73 -59 -61 0 7 82 106 88 106 2 0 -11 -20 -29 -45z m75 0
c3 -8 1 -15 -4 -15 -6 0 -10 7 -10 15 0 8 2 15 4 15 2 0 6 -7 10 -15z m136
-175 c0 -5 -8 -10 -17 -10 -15 0 -16 2 -3 10 19 12 20 12 20 0z"/>
<path d="M1333 2954 c4 -4 2 -13 -3 -19 -8 -9 -6 -14 6 -19 11 -4 15 -2 11 8
-3 8 -1 16 6 19 6 2 2 7 -8 11 -11 4 -16 4 -12 0z"/>
<path d="M3352 2923 c0 -5 -4 -19 -10 -33 -9 -22 -11 -22 -12 -5 -1 18 -1 19
-11 2 -14 -23 -2 -42 17 -26 8 6 14 18 14 25 0 8 5 14 10 14 6 0 10 7 10 15 0
8 -4 15 -10 15 -5 0 -9 -3 -8 -7z"/>
<path d="M1931 2894 c0 -11 3 -14 6 -6 3 7 2 16 -1 19 -3 4 -6 -2 -5 -13z"/>
<path d="M1695 2870 c-3 -11 -1 -28 5 -37 10 -17 10 -16 8 2 -1 11 1 25 5 32
4 6 3 14 -2 17 -5 4 -12 -3 -16 -14z"/>
<path d="M3360 2880 c0 -5 5 -10 10 -10 6 0 10 5 10 10 0 6 -4 10 -10 10 -5 0
-10 -4 -10 -10z"/>
<path d="M3329 2840 c-11 -8 -10 -13 7 -28 16 -16 22 -17 32 -5 10 11 9 13
-10 14 -21 0 -21 1 -4 8 16 6 17 9 4 13 -8 4 -21 2 -29 -2z"/>
<path d="M3329 2778 c4 -12 14 -24 20 -26 8 -3 7 5 -4 22 -21 32 -27 33 -16 4z"/>
<path d="M3388 2793 c7 -3 16 -2 19 1 4 3 -2 6 -13 5 -11 0 -14 -3 -6 -6z"/>
<path d="M2760 2775 c-16 -19 0 -19 26 0 16 12 16 14 3 15 -9 0 -22 -7 -29
-15z"/>
<path d="M2808 2773 c-10 -2 -18 -9 -18 -14 0 -14 16 -11 30 6 7 8 11 14 9 14
-2 -1 -12 -3 -21 -6z"/>
<path d="M3410 2778 c0 -4 9 -22 20 -40 11 -18 20 -28 20 -23 0 6 -9 24 -20
40 -11 17 -20 27 -20 23z"/>
<path d="M2130 2730 c-9 -6 -10 -10 -3 -10 6 0 15 5 18 10 8 12 4 12 -15 0z"/>
<path d="M3892 2727 c-16 -19 -26 -227 -13 -274 6 -23 26 -63 45 -90 43 -63
73 -132 82 -189 8 -54 -10 -55 -21 -1 -8 36 -148 181 -168 174 -14 -5 -12
-132 3 -171 11 -31 10 -32 -32 -6 -18 11 -41 20 -50 20 -32 0 -33 -59 -3 -132
5 -12 1 -17 -17 -20 -22 -3 -23 -6 -20 -78 3 -68 7 -81 50 -154 26 -43 64 -92
85 -109 27 -22 37 -38 37 -59 0 -36 -16 -36 -23 0 -6 30 -130 182 -149 182 -6
0 -19 7 -29 16 -31 28 -37 8 -34 -103 3 -123 21 -177 76 -233 l34 -34 -36 22
c-51 31 -67 28 -74 -11 -8 -42 10 -148 35 -204 l19 -43 -23 0 c-31 0 -34 -17
-25 -114 6 -65 13 -87 41 -127 18 -27 45 -54 61 -60 48 -20 67 -54 61 -107 -3
-26 -7 -49 -9 -52 -2 -3 0 -12 5 -20 7 -12 12 -12 35 0 37 20 46 41 46 111 1
77 15 102 110 183 72 62 138 135 143 159 3 11 9 28 37 99 16 39 5 58 -31 58
-33 0 -37 6 -16 29 19 22 46 108 46 147 0 46 -9 64 -34 64 -19 1 -18 3 12 30
17 17 33 33 35 37 1 5 5 7 8 6 7 -2 7 -2 15 106 5 65 3 85 -7 92 -11 6 -11 11
-1 21 6 6 12 19 12 28 -1 10 -8 6 -21 -13 -18 -24 -67 -57 -84 -57 -3 0 -1 9
4 19 14 25 -5 32 -55 21 -37 -9 -77 -45 -70 -65 3 -10 15 -10 56 0 24 6 25 6
5 -10 -90 -72 -118 -121 -128 -230 -4 -42 -3 -47 8 -32 7 10 11 26 8 35 -5 20
33 128 48 137 5 4 4 -5 -3 -19 -6 -15 -8 -29 -5 -32 10 -10 64 38 84 74 15 27
16 34 4 41 -11 7 -6 13 20 26 l33 18 -17 -26 c-18 -27 -23 -57 -9 -57 12 0 54
68 48 79 -7 11 24 31 48 31 9 0 16 -4 16 -10 0 -17 -43 -60 -53 -53 -6 4 -8 0
-4 -10 3 -9 3 -16 -1 -14 -5 1 -24 -11 -43 -26 -19 -15 -60 -48 -91 -73 -32
-25 -58 -53 -58 -62 0 -11 13 -4 43 24 56 53 117 98 117 85 0 -6 -10 -16 -22
-22 -30 -16 -138 -119 -138 -131 0 -6 -9 -21 -20 -35 -11 -14 -20 -37 -20 -51
0 -32 -52 -182 -63 -182 -15 0 -20 33 -9 63 8 22 8 35 0 51 -7 11 -12 28 -13
36 -1 8 -2 22 -3 31 -2 17 -72 49 -107 49 -16 0 -17 2 -6 9 10 6 26 5 47 -4
31 -13 31 -12 20 11 -8 17 -22 25 -54 30 -23 3 -45 11 -49 17 -4 6 7 7 31 3
22 -4 36 -3 36 3 0 16 -48 44 -65 37 -11 -4 -15 1 -15 19 0 29 7 31 38 9 19
-13 22 -13 22 0 0 8 -9 40 -21 71 -12 31 -19 59 -16 62 9 8 67 -121 74 -162 6
-38 19 -46 26 -17 3 11 5 7 6 -10 2 -41 19 -78 36 -78 24 0 27 22 10 63 -8 20
-13 37 -10 37 18 0 36 -77 31 -131 -3 -37 -2 -59 5 -59 6 0 7 5 4 10 -3 5 -1
10 5 10 6 0 9 4 6 8 -10 16 12 148 39 237 45 150 87 315 102 400 3 17 11 33
19 38 7 4 22 35 34 70 11 34 30 78 41 97 21 36 20 33 -12 -59 -22 -64 -25 -96
-6 -84 6 4 4 -5 -5 -20 -26 -39 -22 -52 8 -28 15 12 35 21 46 21 14 0 6 -11
-32 -41 -54 -43 -93 -96 -85 -116 2 -7 0 -15 -6 -19 -11 -6 -25 -38 -40 -87
-7 -25 -6 -27 6 -17 8 7 15 18 15 25 0 27 69 134 70 108 0 -6 -4 -15 -10 -18
-5 -3 -10 -14 -10 -23 1 -15 2 -15 15 2 8 11 15 28 15 38 0 17 57 55 68 44 3
-3 -3 -15 -13 -26 -16 -17 -16 -20 -2 -20 45 0 104 60 81 82 -8 8 -91 -22
-138 -50 l-40 -24 26 34 c30 39 128 109 141 101 5 -3 4 3 -2 14 -7 14 -7 23 1
31 16 16 -2 14 -32 -3 -37 -21 -47 -18 -17 5 14 11 32 20 41 20 10 0 16 9 16
23 0 39 -12 39 -52 0 -21 -20 -38 -33 -38 -28 0 21 31 110 46 133 8 13 13 31
10 39 -5 13 -9 13 -24 2 -9 -8 -2 3 16 25 45 52 30 61 -18 10 l-38 -41 -11 73
c-14 93 -48 171 -102 229 -52 57 -92 80 -107 62z m42 -33 c3 -8 2 -12 -4 -9
-6 3 -10 10 -10 16 0 14 7 11 14 -7z m57 -41 l24 -27 -24 15 c-14 9 -27 21
-29 27 -6 19 3 14 29 -15z m-21 -27 c0 -9 -4 -16 -10 -16 -10 0 -7 -13 21 -76
10 -23 24 -64 31 -90 15 -60 17 -62 28 -44 7 10 10 -12 10 -67 0 -45 -4 -84
-9 -88 -10 -5 -26 71 -19 91 2 6 -10 22 -27 37 -25 22 -27 25 -9 21 l22 -6
-24 50 c-13 27 -30 55 -39 62 -8 7 -15 17 -15 22 0 6 7 5 15 -2 24 -20 27 -7
6 35 -12 26 -16 47 -11 64 4 14 5 33 2 41 -4 11 -2 11 11 -2 10 -9 17 -24 17
-32z m-56 -40 c1 -19 -3 -34 -9 -33 -5 1 -9 -13 -9 -30 1 -20 -2 -30 -8 -27
-6 4 -8 28 -4 62 10 81 26 98 30 28z m107 -7 c-9 -23 -10 -22 -10 11 -1 23 2
31 9 24 7 -7 7 -19 1 -35z m58 -98 c5 -23 5 -39 0 -35 -5 3 -9 14 -9 25 0 32
-18 21 -23 -13 -2 -18 -4 1 -5 42 -1 70 0 73 13 49 8 -15 19 -45 24 -68z
m-150 -43 l25 -31 -25 13 c-24 13 -39 29 -39 43 0 15 16 5 39 -25z m158 -60
c-2 -13 -4 -5 -4 17 -1 22 1 32 4 23 2 -10 2 -28 0 -40z m-217 -192 l23 -38
-24 7 c-27 9 -39 22 -39 47 0 9 -3 25 -6 35 -6 16 -5 16 8 3 8 -8 25 -32 38
-54z m30 4 c0 -5 -2 -10 -4 -10 -3 0 -8 5 -11 10 -3 6 -1 10 4 10 6 0 11 -4
11 -10z m-94 -84 c12 -39 34 -46 34 -11 0 47 22 21 24 -28 2 -51 -1 -54 -30
-32 -10 8 -34 15 -51 15 -18 0 -33 5 -33 10 0 6 11 10 25 10 14 0 25 4 25 9 0
11 -25 21 -51 21 -14 0 -19 7 -19 28 0 16 3 31 6 34 12 13 61 -27 70 -56z
m124 49 c0 -8 5 -15 11 -15 5 0 7 4 4 10 -3 6 1 7 9 4 15 -6 32 -62 25 -83 -2
-6 -20 11 -41 38 -33 46 -38 61 -16 61 4 0 8 -7 8 -15z m-13 -113 c-9 -2 -17
-11 -17 -19 0 -29 -7 -9 -14 37 l-6 45 27 -30 c22 -25 24 -31 10 -33z m38 -63
c5 -19 2 -26 -9 -26 -10 0 -14 10 -13 33 2 36 12 33 22 -7z m-185 -19 c7 -22
16 -38 18 -35 3 3 12 -9 19 -26 11 -27 15 -29 28 -19 14 12 15 8 9 -28 -4 -29
-2 -47 7 -58 12 -15 14 -14 20 7 6 21 7 21 8 -8 1 -17 5 -43 11 -57 12 -33 0
-39 -39 -20 -37 19 -40 27 -6 18 14 -3 25 -2 25 2 0 21 -79 121 -113 143 -42
28 -43 37 -2 21 37 -14 40 -9 16 31 -23 41 -37 84 -24 76 5 -3 15 -24 23 -47z
m68 39 c45 -9 52 -15 76 -58 32 -60 35 -91 6 -84 -11 3 -20 9 -20 14 0 5 7 6
15 3 9 -4 15 0 15 9 0 8 -15 21 -32 27 -25 10 -28 14 -15 17 28 7 20 30 -15
43 -48 17 -94 39 -86 39 4 1 29 -4 56 -10z m14 -91 c-9 -9 -12 -7 -12 12 0 19
3 21 12 12 9 -9 9 -15 0 -24z m-76 -53 c16 -12 16 -14 3 -15 -9 0 -22 7 -29
15 -16 19 0 19 26 0z m151 -47 c-3 -7 -5 -2 -5 12 0 14 2 19 5 13 2 -7 2 -19
0 -25z m243 -82 c0 -2 -8 -10 -17 -17 -16 -13 -17 -12 -4 4 13 16 21 21 21 13z
m-375 -55 c3 -5 1 -12 -5 -16 -5 -3 -10 1 -10 9 0 18 6 21 15 7z m285 -31 c-8
-5 -19 -10 -25 -10 -5 0 -3 5 5 10 8 5 20 10 25 10 6 0 3 -5 -5 -10z m66 -116
c-4 -31 -11 -64 -16 -73 -7 -11 -8 3 -3 43 l6 59 -41 -45 c-23 -25 -42 -50
-42 -56 0 -5 -7 -12 -15 -16 -8 -3 -15 -12 -15 -21 0 -11 10 -15 37 -15 52 0
31 -14 -30 -20 -49 -5 -54 -8 -85 -54 -18 -27 -35 -60 -38 -75 -3 -14 -15 -45
-27 -68 -20 -39 -23 -41 -39 -26 -13 12 -18 13 -18 3 0 -10 -5 -9 -18 3 -10
10 -27 18 -38 18 -17 1 -17 2 -1 6 9 2 17 10 17 16 0 26 -42 79 -73 92 -17 8
-24 14 -15 15 28 0 29 15 3 64 -33 61 -32 67 4 22 27 -34 29 -35 35 -13 11 41
6 54 -26 71 -18 8 -26 16 -18 16 8 0 28 -10 43 -23 26 -20 27 -25 17 -52 -12
-33 -5 -99 11 -90 5 4 9 -2 9 -12 0 -10 7 -27 15 -37 14 -19 15 -18 15 10 0
22 3 26 10 14 5 -8 10 -25 10 -38 0 -13 5 -32 11 -43 10 -20 11 -19 30 5 10
13 19 31 19 39 0 20 28 87 50 117 10 14 23 44 29 68 7 23 14 42 17 42 4 0 3
-11 0 -25 -4 -14 -2 -25 3 -25 10 0 15 13 26 66 9 49 66 93 119 94 l29 0 -7
-56z m-167 -3 c-24 -21 -46 -37 -48 -35 -9 8 22 52 43 62 45 22 47 10 5 -27z
m-159 -140 c-1 -23 -2 -24 -11 -8 -6 9 -12 27 -14 38 -4 17 -2 19 10 9 8 -7
15 -24 15 -39z m300 42 c0 -5 -5 -15 -10 -23 -8 -12 -10 -11 -10 8 0 12 5 22
10 22 6 0 10 -3 10 -7z m-320 -76 c0 -5 -4 -6 -9 -2 -6 3 -15 -3 -21 -12 -10
-16 -11 -15 -6 7 3 14 6 34 6 45 1 18 2 17 15 -5 8 -14 14 -29 15 -33z m285
13 c-9 -14 -126 -103 -130 -98 -3 3 125 108 133 108 2 0 0 -4 -3 -10z m50 -30
c3 -5 -1 -10 -9 -10 -9 0 -16 5 -16 10 0 6 4 10 9 10 6 0 13 -4 16 -10z m-39
-58 c-18 -16 -18 -16 -6 6 6 13 14 21 18 18 3 -4 -2 -14 -12 -24z m37 -7 c-3
-9 -8 -14 -10 -11 -3 3 -2 9 2 15 9 16 15 13 8 -4z m-283 -47 c0 -19 -2 -20
-10 -8 -13 19 -13 30 0 30 6 0 10 -10 10 -22z m220 18 c0 -2 -8 -10 -17 -17
-16 -13 -17 -12 -4 4 13 16 21 21 21 13z m-124 -86 l-15 -35 -1 33 c0 18 6 43
12 55 12 22 13 22 16 2 1 -12 -4 -36 -12 -55z m155 33 c-5 -10 -15 -18 -23
-19 -7 0 -23 -2 -35 -2 -23 -2 -97 -71 -146 -137 -23 -31 -28 -35 -22 -15 4
14 12 30 19 35 7 6 38 39 71 74 47 52 65 65 94 68 19 2 37 6 40 9 10 10 11 3
2 -13z m-361 -18 c16 -17 19 -25 9 -25 -8 0 -19 11 -26 25 -14 31 -12 31 17 0z
m138 -57 c-31 -93 -34 -116 -15 -132 11 -9 11 -20 1 -56 -11 -41 -14 -39 -18
8 -1 8 -10 21 -21 30 -11 10 -21 31 -23 47 l-2 30 16 -28 c8 -16 18 -27 21
-24 2 3 0 14 -6 25 -14 27 -14 72 0 72 8 0 7 6 -2 17 -11 13 -11 17 -1 20 6 3
10 9 6 14 -3 5 0 9 5 9 6 0 11 -6 11 -12 0 -7 11 4 25 25 14 20 27 37 29 37 1
0 -10 -37 -26 -82z m-161 -54 c3 2 -1 14 -7 26 -6 12 -9 24 -6 27 3 4 11 -8
17 -25 14 -39 26 -41 32 -4 3 20 4 17 6 -13 1 -22 4 -51 8 -64 4 -18 2 -22 -8
-19 -8 3 -14 10 -14 16 0 5 -17 27 -37 48 -21 20 -38 44 -38 53 0 9 9 2 21
-17 12 -18 24 -31 26 -28z"/>
<path d="M3770 2121 c0 -5 5 -13 10 -16 6 -3 10 -2 10 4 0 5 -4 13 -10 16 -5
3 -10 2 -10 -4z"/>
<path d="M4091 1563 c0 -6 -10 -13 -22 -15 -21 -3 -69 -71 -58 -83 19 -19 94
62 86 93 -3 9 -5 12 -6 5z"/>
<path d="M2227 2718 c2 -5 19 -8 38 -8 19 0 36 3 38 8 3 4 -14 7 -38 7 -24 0
-41 -3 -38 -7z"/>
<path d="M1860 2686 c0 -9 39 -13 51 -5 10 6 4 9 -18 9 -18 0 -33 -2 -33 -4z"/>
<path d="M1805 2670 c-3 -5 -1 -10 4 -10 6 0 11 5 11 10 0 6 -2 10 -4 10 -3 0
-8 -4 -11 -10z"/>
<path d="M3450 2669 c0 -4 -8 -6 -17 -3 -14 5 -15 4 -4 -4 7 -5 23 -8 35 -6
11 2 15 2 9 -2 -7 -3 -13 -10 -13 -15 0 -6 4 -8 9 -4 5 3 11 -3 14 -12 2 -10
4 -4 4 14 0 22 -5 33 -18 36 -11 3 -19 1 -19 -4z"/>
<path d="M2890 2660 c0 -5 5 -10 11 -10 5 0 7 5 4 10 -3 6 -8 10 -11 10 -2 0
-4 -4 -4 -10z"/>
<path d="M1767 2634 c-4 -4 -7 -14 -7 -23 0 -11 3 -12 11 -4 6 6 10 16 7 23
-2 6 -7 8 -11 4z"/>
<path d="M3423 2607 c0 -12 1 -16 4 -9 4 9 9 10 18 2 9 -8 14 -6 19 5 3 10 2
13 -5 10 -5 -4 -15 -2 -22 4 -10 7 -13 4 -14 -12z"/>
<path d="M1589 2599 c-11 -7 -11 -9 4 -9 20 0 23 -16 5 -23 -7 -2 -1 -4 14 -3
16 0 28 1 28 2 0 1 -8 10 -18 22 -13 14 -22 18 -33 11z"/>
<path d="M1550 2591 c0 -6 4 -12 8 -15 5 -3 9 1 9 9 0 8 -4 15 -9 15 -4 0 -8
-4 -8 -9z"/>
<path d="M3081 2584 c0 -11 3 -14 6 -6 3 7 2 16 -1 19 -3 4 -6 -2 -5 -13z"/>
<path d="M3483 2548 c1 -15 6 -23 11 -18 4 4 4 16 -2 26 -9 16 -10 14 -9 -8z"/>
<path d="M1560 2556 c0 -2 7 -7 16 -10 8 -3 12 -2 9 4 -6 10 -25 14 -25 6z"/>
<path d="M2343 2539 c-18 -5 -35 -15 -39 -21 -5 -7 -2 -9 9 -5 14 5 14 3 -1
-23 -9 -16 -20 -26 -24 -24 -5 3 -8 -7 -7 -23 0 -15 3 -23 5 -16 3 7 11 10 18
7 14 -5 36 43 36 77 0 14 7 19 25 19 14 0 25 5 25 10 0 12 -4 11 -47 -1z"/>
<path d="M2895 2540 c-7 -11 139 -80 169 -80 12 0 28 5 36 10 11 7 6 8 -16 4
-34 -6 -79 12 -127 52 -30 25 -52 30 -62 14z"/>
<path d="M3087 2543 c-4 -3 -7 -11 -7 -17 0 -6 5 -5 12 2 6 6 9 14 7 17 -3 3
-9 2 -12 -2z"/>
<path d="M2396 2515 c-9 -13 -16 -31 -16 -39 0 -8 -7 -21 -15 -30 -11 -11 -12
-21 -6 -38 6 -13 10 -17 10 -10 1 7 6 10 11 7 12 -7 2 -57 -13 -66 -12 -9 58
-83 71 -75 5 3 19 -2 31 -10 21 -15 22 -17 5 -36 -21 -22 -69 -22 -97 1 -17
14 -20 14 -33 -4 -13 -18 -14 -18 -14 -1 0 14 -3 16 -13 7 -8 -6 -17 -8 -20
-4 -4 3 -7 3 -7 0 0 -4 22 -18 50 -32 72 -36 143 -34 221 6 55 29 74 46 106
95 10 16 13 17 22 5 8 -12 15 -13 34 -4 22 10 26 9 30 -9 4 -13 11 -19 21 -15
8 3 17 1 20 -6 2 -7 5 -4 5 7 1 13 -4 17 -17 14 -13 -4 -18 0 -18 15 1 26 -18
32 -38 11 -13 -12 -20 -13 -31 -4 -8 6 -18 9 -23 6 -4 -3 -7 8 -4 23 3 21 -5
37 -34 69 -20 23 -41 39 -45 36 -5 -3 -9 3 -9 14 0 29 -50 70 -100 81 -63 15
-66 14 -84 -14z m164 -55 c0 -5 -4 -10 -10 -10 -5 0 -10 5 -10 10 0 6 5 10 10
10 6 0 10 -4 10 -10z m-100 -30 c0 -5 -8 -10 -17 -10 -15 0 -16 2 -3 10 19 12
20 12 20 0z m-20 -42 c0 -18 -2 -20 -9 -8 -6 8 -7 18 -5 22 9 14 14 9 14 -14z
m30 13 c0 -6 -4 -13 -10 -16 -5 -3 -10 1 -10 9 0 9 5 16 10 16 6 0 10 -4 10
-9z m125 -88 c-9 -15 -13 -19 -10 -8 4 11 10 29 13 40 3 11 7 14 9 8 3 -7 -3
-24 -12 -40z m65 28 c0 -6 -4 -13 -10 -16 -5 -3 -10 1 -10 9 0 9 5 16 10 16 6
0 10 -4 10 -9z m-224 -38 c-8 -8 -36 5 -36 17 0 7 6 7 21 0 11 -7 18 -14 15
-17z m124 -52 c-10 -20 -30 -29 -30 -13 0 4 8 18 17 32 19 27 30 12 13 -19z
m80 20 c0 -6 -4 -13 -10 -16 -5 -3 -10 1 -10 9 0 9 5 16 10 16 6 0 10 -4 10
-9z"/>
<path d="M3115 2530 c-3 -5 -1 -10 4 -10 6 0 11 5 11 10 0 6 -2 10 -4 10 -3 0
-8 -4 -11 -10z"/>
<path d="M2690 2527 c0 -11 29 -67 36 -67 3 0 2 5 -1 10 -3 6 2 10 12 11 14 0
14 2 3 6 -8 4 -22 16 -32 27 -9 12 -17 17 -18 13z"/>
<path d="M3404 2489 c-1 -16 3 -26 7 -23 5 3 9 0 9 -5 0 -6 -7 -11 -17 -11 -9
0 -13 -3 -10 -7 4 -3 2 -12 -4 -19 -7 -9 -6 -12 8 -9 10 1 17 8 15 16 -2 10 0
10 12 0 10 -8 16 -9 21 -1 5 8 11 8 21 -1 16 -13 30 -6 20 10 -4 5 -15 8 -26
6 -22 -4 -45 28 -36 50 2 7 -1 15 -7 18 -7 3 -12 -6 -13 -24z"/>
<path d="M3440 2480 c8 -5 20 -10 25 -10 6 0 3 5 -5 10 -8 5 -19 10 -25 10 -5
0 -3 -5 5 -10z"/>
<path d="M2763 2470 c-24 -10 -22 -40 2 -40 7 0 16 -6 18 -12 3 -7 6 4 6 25 1
20 0 37 -1 36 -2 0 -13 -4 -25 -9z"/>
<path d="M3446 2421 c-4 -6 -1 -11 6 -12 7 0 4 -4 -7 -9 -11 -4 -30 -6 -41 -3
-19 4 -23 -2 -33 -47 -6 -28 -11 -67 -11 -85 0 -38 -10 -44 -30 -20 -9 11 -16
12 -25 5 -6 -5 -15 -7 -18 -3 -14 13 -6 -24 20 -107 16 -46 29 -76 31 -67 2 9
7 15 12 12 5 -3 12 0 15 6 4 6 -2 13 -14 16 -22 6 -29 23 -10 23 8 0 7 5 -1
15 -16 19 -5 34 12 17 19 -19 30 -14 22 10 -6 20 -5 21 9 10 27 -22 50 -154
42 -241 -4 -42 -10 -82 -15 -90 -4 -8 -5 -23 -2 -34 3 -12 1 -18 -5 -14 -6 4
-19 -21 -32 -58 -22 -68 -27 -110 -13 -101 5 3 9 -1 9 -8 0 -8 -5 -12 -12 -10
-6 3 -17 -7 -25 -21 -13 -25 -170 -180 -180 -178 -24 3 -80 -36 -80 -57 0 -6
-4 -9 -9 -5 -5 3 -19 -7 -30 -21 -14 -18 -21 -22 -21 -11 0 8 6 18 13 20 8 4
7 6 -3 6 -19 1 -47 -39 -28 -40 7 0 -2 -5 -20 -10 -18 -5 -30 -14 -27 -18 3
-5 -5 -7 -17 -4 -15 3 -19 2 -11 -4 7 -5 9 -14 3 -22 -4 -8 -6 -20 -3 -28 3
-7 1 -13 -5 -13 -6 0 -8 -10 -5 -22 5 -23 5 -23 -11 -3 -17 20 -17 20 -13 -2
3 -13 1 -23 -4 -23 -5 0 -10 12 -10 28 -1 16 -3 20 -6 10 -2 -10 -13 -18 -24
-18 -10 0 -19 -4 -19 -10 0 -5 5 -10 10 -10 6 0 10 -5 10 -11 0 -5 -5 -7 -11
-3 -6 3 -16 0 -21 -7 -8 -11 -8 -10 -4 4 3 10 -1 28 -9 40 -8 12 -15 17 -15
11 0 -5 5 -15 12 -22 9 -9 9 -12 0 -12 -7 0 -11 -5 -9 -11 4 -19 -62 -54 -76
-40 -8 8 -7 11 6 11 9 0 17 5 17 11 0 6 -7 8 -16 5 -9 -3 -20 -6 -25 -6 -6 0
-8 -4 -4 -9 3 -5 -4 -12 -15 -16 -11 -3 -20 -10 -20 -15 0 -6 11 -5 26 0 15 6
23 6 19 0 -3 -5 3 -7 13 -5 24 4 49 -10 33 -19 -6 -4 -11 -2 -11 3 0 7 -7 7
-20 -1 -17 -11 -22 -10 -30 2 -6 9 -10 10 -10 3 0 -7 -7 -10 -17 -6 -11 4 -14
3 -9 -5 4 -7 13 -12 20 -12 8 0 16 -9 19 -20 3 -11 2 -18 -1 -16 -4 2 -16 -8
-26 -22 -19 -25 -19 -25 2 -20 12 3 24 1 27 -6 3 -6 3 -1 1 12 -3 15 0 22 7
19 7 -3 11 -10 10 -16 -2 -6 2 -11 8 -11 5 0 8 -4 4 -10 -3 -5 8 -7 27 -4 18
3 42 5 53 5 11 0 31 12 45 27 14 16 48 43 75 62 38 25 45 28 30 11 -11 -13
-30 -27 -43 -32 -13 -5 -21 -13 -18 -18 3 -5 -10 -18 -29 -30 -35 -21 -43 -39
-25 -57 7 -7 -1 -9 -24 -6 -25 3 -33 8 -29 18 3 8 0 14 -6 14 -22 0 -11 -40
12 -45 54 -12 106 -25 162 -40 33 -9 78 -21 100 -27 22 -6 56 -16 75 -23 38
-14 221 -62 337 -89 59 -14 75 -15 92 -4 19 12 20 20 15 103 -10 184 -13 255
-19 480 -4 127 -9 237 -12 245 -3 8 -7 107 -8 220 -3 320 -15 522 -31 541 -16
18 -19 33 -4 24 6 -3 10 -1 10 5 0 6 -7 13 -15 16 -12 5 -13 9 -4 20 7 8 9 17
5 21 -3 3 -6 0 -6 -8 -1 -8 -7 -3 -14 10 -8 15 -16 20 -20 12z m-112 -210 c14
-25 14 -30 1 -35 -17 -6 -28 8 -31 41 -4 32 13 29 30 -6z m145 -375 c9 -11 9
-16 -1 -22 -7 -4 -10 -4 -6 1 4 4 3 14 -3 22 -6 7 -9 13 -6 13 2 0 10 -6 16
-14z m-49 -106 c8 -43 7 -64 -6 -102 -8 -27 -19 -46 -24 -43 -10 6 -24 73 -21
100 2 26 32 107 37 102 2 -2 8 -28 14 -57z m90 -195 c0 -8 -4 -15 -9 -15 -13
0 -22 16 -14 24 11 11 23 6 23 -9z m-25 -75 c3 -5 1 -10 -4 -10 -6 0 -11 5
-11 10 0 6 2 10 4 10 3 0 8 -4 11 -10z m-153 -60 c-29 -28 -59 -50 -65 -50 -7
1 -2 9 10 19 12 10 19 22 15 26 -4 5 -2 5 5 1 7 -4 27 7 45 23 18 17 35 30 38
30 3 0 -19 -22 -48 -49z m-117 -30 c3 -6 -1 -7 -9 -4 -18 7 -21 14 -7 14 6 0
13 -4 16 -10z m-28 -25 c-7 -7 -18 -10 -26 -7 -11 4 -11 7 -3 10 7 2 10 7 7
12 -3 4 4 6 14 3 16 -4 17 -8 8 -18z m-53 -1 c3 -8 2 -12 -4 -9 -6 3 -10 10
-10 16 0 14 7 11 14 -7z m346 1 c0 -9 -9 -15 -25 -15 -29 0 -34 16 -7 23 30 8
32 7 32 -8z m-245 -31 c-23 -17 -93 -76 -145 -124 -19 -17 -44 -36 -55 -42
-11 -6 4 11 34 38 49 45 71 64 150 131 14 12 28 19 31 16 3 -2 -4 -11 -15 -19z
m-124 -4 c6 0 7 5 3 12 -4 7 -3 8 4 4 23 -14 13 -33 -15 -28 -21 4 -25 2 -20
-11 7 -18 -8 -33 -18 -17 -3 5 2 21 12 34 10 13 20 20 21 15 2 -5 8 -9 13 -9z
m189 -30 c0 12 4 11 15 -4 19 -25 17 -196 -2 -196 -7 0 -13 -8 -13 -17 -1 -15
-3 -13 -13 5 -7 12 -16 19 -20 16 -8 -9 -9 2 -7 116 2 95 6 109 26 83 11 -14
13 -15 14 -3z m180 13 c0 -5 -4 -15 -10 -23 -11 -18 -25 -7 -17 15 6 15 27 21
27 8z m-260 -73 c0 -5 -5 -10 -11 -10 -5 0 -7 5 -4 10 3 6 8 10 11 10 2 0 4
-4 4 -10z m-287 -70 c2 -14 2 -19 0 -12 -3 6 -17 13 -31 13 -25 2 -25 2 -4 6
17 3 22 9 17 21 -4 11 -3 14 4 7 5 -5 11 -21 14 -35z m-65 -15 c0 -25 -12 -33
-23 -15 -4 7 11 37 21 40 1 0 2 -11 2 -25z m297 -24 c-21 -43 -29 -39 -8 4 9
19 18 33 21 31 2 -2 -4 -18 -13 -35z m-251 13 c3 -8 2 -12 -4 -9 -6 3 -10 10
-10 16 0 14 7 11 14 -7z m-159 -14 c-3 -5 -11 -10 -16 -10 -6 0 -7 5 -4 10 3
6 11 10 16 10 6 0 7 -4 4 -10z m428 -35 c-3 -9 -8 -14 -10 -11 -3 3 -2 9 2 15
9 16 15 13 8 -4z m230 -36 c-8 -29 -13 -23 -13 14 0 22 3 28 9 18 5 -7 6 -22
4 -32z m-583 16 c0 -7 -30 -13 -34 -7 -3 4 4 9 15 9 10 1 19 0 19 -2z m70 -65
c0 -5 -8 -10 -17 -10 -15 0 -16 2 -3 10 19 12 20 12 20 0z m607 -22 c-3 -7 -5
-2 -5 12 0 14 2 19 5 13 2 -7 2 -19 0 -25z m-447 7 c0 -8 -7 -15 -15 -15 -16
0 -20 12 -8 23 11 12 23 8 23 -8z m224 9 c8 -3 20 -22 27 -41 9 -29 9 -38 -4
-50 -9 -9 -22 -13 -30 -10 -18 7 -31 59 -22 87 7 22 7 22 29 14z m-54 -19 c0
-8 -7 -15 -16 -15 -14 0 -14 3 -4 15 7 8 14 15 16 15 2 0 4 -7 4 -15z m-353
-51 c-3 -3 -12 -4 -19 -1 -8 3 -5 6 6 6 11 1 17 -2 13 -5z m521 -48 c-13 -29
-41 -45 -30 -18 7 21 24 41 34 42 4 0 3 -11 -4 -24z m-308 4 c8 -5 11 -10 5
-10 -5 0 -17 5 -25 10 -8 5 -10 10 -5 10 6 0 17 -5 25 -10z m450 -87 c-1 -44
-12 -46 -116 -22 -79 19 -92 24 -65 27 19 2 37 -1 40 -7 4 -6 12 -7 21 -1 21
13 30 12 30 -3 0 -14 38 -16 58 -3 7 4 10 12 7 17 -4 5 1 9 9 9 9 0 16 -8 16
-17z"/>
<path d="M3415 2410 c-3 -5 -1 -10 4 -10 6 0 11 5 11 10 0 6 -2 10 -4 10 -3 0
-8 -4 -11 -10z"/>
<path d="M1758 2403 c10 -4 8 -9 -7 -20 -31 -21 -26 -36 5 -16 l26 17 -6 -31
c-6 -27 -1 -63 20 -135 4 -13 0 -18 -14 -18 -14 0 -19 -6 -18 -17 2 -10 -1
-21 -6 -24 -6 -4 4 -22 21 -41 17 -20 31 -40 31 -46 0 -13 48 -31 80 -30 14 0
30 -1 35 -2 32 -7 61 4 92 36 l34 36 -27 27 c-15 14 -40 49 -56 78 -28 49 -57
79 -142 148 -48 38 -59 45 -71 44 -5 0 -4 -3 3 -6z m72 -120 c0 -44 -5 -41
-14 10 -5 27 -4 37 3 32 6 -3 11 -22 11 -42z m62 -18 c3 -14 1 -28 -3 -31 -5
-3 -9 9 -9 25 0 38 6 40 12 6z m27 -115 c0 -8 -7 -1 -14 15 -8 17 -14 37 -14
45 0 8 7 2 14 -15 8 -16 14 -37 14 -45z m50 -25 c0 -30 -1 -30 -18 10 -10 22
-15 49 -13 60 5 17 7 16 18 -10 7 -17 13 -43 13 -60z"/>
<path d="M2794 2396 c-19 -15 -19 -15 2 -13 11 0 21 7 21 14 0 16 1 16 -23 -1z"/>
<path d="M2350 2371 c0 -6 5 -13 10 -16 6 -3 10 1 10 9 0 9 -4 16 -10 16 -5 0
-10 -4 -10 -9z"/>
<path d="M1544 2321 c4 -5 3 -11 -1 -14 -5 -2 -2 -2 5 -1 20 5 13 -5 -15 -21
-26 -15 -26 -15 -3 -9 30 8 50 28 42 40 -9 12 -35 17 -28 5z"/>
<path d="M2296 2322 c-9 -15 24 -52 46 -52 12 0 31 -8 42 -17 12 -11 9 -5 -7
15 -15 19 -27 40 -27 48 0 15 -45 20 -54 6z"/>
<path d="M4172 2313 c-12 -24 -24 -73 -17 -73 17 0 45 39 45 62 0 32 -15 37
-28 11z"/>
<path d="M1940 2313 c0 -9 48 -83 54 -83 3 0 -4 18 -15 39 -18 38 -39 61 -39
44z"/>
<path d="M1750 2275 c0 -8 4 -15 10 -15 5 0 7 7 4 15 -4 8 -8 15 -10 15 -2 0
-4 -7 -4 -15z"/>
<path d="M3205 2280 c-3 -5 -1 -10 4 -10 6 0 11 5 11 10 0 6 -2 10 -4 10 -3 0
-8 -4 -11 -10z"/>
<path d="M3170 2216 c-12 -33 -13 -46 -1 -46 9 0 24 60 16 68 -2 3 -9 -7 -15
-22z"/>
<path d="M1333 2170 c0 -30 2 -43 4 -27 2 15 2 39 0 55 -2 15 -4 2 -4 -28z"/>
<path d="M1528 2193 c7 -3 16 -2 19 1 4 3 -2 6 -13 5 -11 0 -14 -3 -6 -6z"/>
<path d="M2887 2185 c21 -40 90 -86 90 -60 0 7 -6 11 -12 8 -7 -2 -21 6 -31
19 -11 13 -28 30 -38 38 -18 14 -19 14 -9 -5z"/>
<path d="M1527 2160 c3 -11 7 -20 9 -20 2 0 4 9 4 20 0 11 -4 20 -9 20 -5 0
-7 -9 -4 -20z"/>
<path d="M2051 2164 c1 -21 16 -47 21 -38 4 5 0 18 -8 29 -8 10 -14 15 -13 9z"/>
<path d="M2751 2154 c0 -11 3 -14 6 -6 3 7 2 16 -1 19 -3 4 -6 -2 -5 -13z"/>
<path d="M2352 2138 c3 -7 14 -12 26 -11 35 1 38 4 17 13 -29 13 -47 12 -43
-2z"/>
<path d="M1483 2129 c-13 -5 -23 -5 -23 -1 0 4 -4 2 -8 -3 -4 -6 -20 -17 -37
-24 -23 -11 -26 -15 -12 -18 9 -3 17 -11 17 -20 0 -12 -3 -13 -15 -3 -8 6 -19
9 -25 5 -15 -9 -1 -27 17 -21 12 5 14 1 10 -14 -3 -11 -1 -18 3 -15 5 3 15 -4
23 -15 7 -11 17 -17 22 -12 5 4 5 1 1 -5 -4 -7 -4 -13 -1 -13 10 0 30 23 38
43 4 10 2 17 -5 17 -6 0 -9 2 -6 5 3 4 18 3 34 -1 27 -7 27 -7 6 -15 -12 -5
-22 -14 -22 -22 0 -7 -11 -23 -25 -35 -19 -17 -25 -18 -25 -7 0 18 -26 20 -36
3 -5 -7 -2 -9 8 -6 9 4 15 0 15 -8 0 -8 -4 -14 -8 -14 -14 0 0 -25 22 -38 12
-8 18 -9 15 -3 -8 12 7 22 50 31 22 5 32 4 28 -2 -4 -6 0 -14 7 -19 11 -7 11
-9 1 -9 -7 0 -20 -6 -27 -12 -8 -7 -21 -19 -29 -26 -9 -6 -13 -19 -9 -27 3 -9
2 -15 -3 -14 -25 4 -45 -2 -38 -12 4 -7 1 -10 -7 -7 -8 3 -14 10 -14 16 0 7
-4 11 -10 11 -28 -4 -35 -14 -35 -53 0 -30 -3 -37 -10 -26 -8 13 -10 12 -10
-2 0 -10 6 -18 13 -18 9 0 8 -3 -2 -9 -7 -5 -11 -14 -7 -20 7 -11 12 -46 21
-149 3 -35 6 -67 6 -70 4 -26 -2 -42 -13 -36 -10 6 -10 5 -1 -8 7 -8 9 -18 5
-23 -4 -4 0 -6 8 -3 8 3 15 15 14 26 0 16 3 19 12 11 7 -5 11 -21 9 -34 -1
-13 1 -24 4 -23 29 3 51 -4 45 -14 -5 -8 -2 -9 9 -5 10 3 17 3 17 -2 0 -5 21
-14 48 -21 109 -29 143 -43 138 -56 -3 -7 7 -17 25 -23 16 -5 29 -13 29 -16 0
-3 -5 -3 -12 1 -7 5 -8 3 -3 -5 4 -7 18 -11 31 -8 13 2 21 0 18 -4 -3 -5 1 -9
10 -9 8 0 17 6 19 13 4 7 6 6 6 -4 1 -15 11 -20 71 -36 8 -2 22 -5 30 -5 8 0
20 -5 27 -10 7 -6 14 -5 18 3 6 8 10 7 17 -2 7 -11 11 -11 15 -2 3 10 10 10
26 -2 29 -20 47 -19 47 3 0 14 -2 15 -10 2 -8 -13 -10 -13 -10 2 0 20 -36 43
-45 28 -3 -5 -12 -7 -20 -3 -9 3 -22 0 -30 -7 -15 -12 -22 0 -8 14 4 3 8 14 9
24 3 16 2 16 -10 0 -14 -19 -32 -25 -20 -7 5 8 1 8 -14 0 -25 -13 -35 -14 -28
-2 4 5 -3 7 -14 4 -12 -3 -20 0 -20 6 0 7 -4 10 -9 6 -5 -3 -12 -1 -15 4 -4 6
8 8 29 5 19 -2 35 -3 35 -1 0 2 -11 17 -25 33 -27 31 -26 39 3 30 11 -4 23
-18 26 -31 8 -32 26 -32 26 0 0 18 4 23 16 18 9 -3 14 -13 11 -24 -3 -11 -1
-17 4 -13 5 3 9 11 9 18 0 9 9 12 25 8 14 -2 22 -8 19 -13 -3 -5 0 -9 5 -9 6
0 11 5 11 10 0 6 5 10 11 10 5 0 8 -4 5 -8 -2 -4 4 -13 15 -20 16 -10 19 -9
20 5 1 10 4 5 8 -12 6 -27 10 -30 41 -28 19 1 27 -1 17 -3 -9 -3 -15 -10 -12
-15 3 -5 -2 -6 -11 -2 -13 5 -15 3 -8 -8 12 -20 15 -49 5 -49 -5 0 -11 5 -13
11 -2 7 -9 5 -17 -5 -12 -14 -12 -16 3 -10 9 3 16 1 16 -5 0 -16 68 -44 92
-38 10 3 16 1 12 -4 -3 -5 0 -9 5 -9 6 0 11 5 11 11 0 6 7 8 16 5 8 -3 13 -2
10 3 -7 11 17 21 52 22 15 0 21 3 14 6 -6 2 -10 9 -7 13 3 5 12 7 20 4 8 -4
12 -10 9 -15 -3 -5 -1 -9 4 -9 5 0 12 -9 15 -20 4 -17 2 -19 -21 -13 -15 3
-30 11 -34 17 -4 6 -6 0 -5 -12 1 -17 6 -22 19 -19 10 3 16 1 12 -4 -3 -5 0
-10 5 -10 14 -2 29 -6 36 -9 3 -1 9 -3 14 -4 5 0 13 -4 17 -8 14 -15 46 -9 40
7 -3 8 -2 15 2 15 8 0 14 31 12 60 0 8 0 27 0 43 0 15 -5 27 -12 27 -9 0 -10
3 -2 8 20 13 26 59 8 66 -9 4 -13 2 -8 -5 3 -6 -5 -3 -19 6 -33 21 -74 26 -74
8 0 -7 9 -13 19 -13 10 0 18 -6 18 -12 0 -9 4 -8 11 2 8 12 9 10 4 -7 -4 -15
-1 -23 12 -27 10 -3 6 -4 -9 -2 -16 2 -28 -1 -28 -5 0 -5 8 -9 18 -10 11 0 7
-4 -10 -11 -16 -5 -28 -16 -28 -24 0 -21 -14 -17 -41 13 -22 25 -22 26 -1 9
12 -11 22 -14 22 -8 0 14 -17 25 -44 26 -13 1 -22 9 -24 21 -3 17 -1 18 8 5 8
-11 13 -12 16 -3 4 8 13 9 30 3 15 -6 24 -6 24 0 0 6 5 10 11 10 5 0 7 -5 3
-12 -4 -7 -3 -8 5 -4 18 11 2 28 -24 24 -13 -2 -23 1 -22 7 1 5 5 9 10 8 11
-4 8 12 -5 25 -9 9 -9 12 3 12 7 1 -1 7 -20 15 -18 8 -37 12 -42 9 -5 -3 -9
-1 -9 4 0 5 -13 15 -28 21 -15 6 -40 23 -56 36 -16 14 -33 22 -39 18 -6 -3 -7
-1 -3 5 3 6 1 14 -6 19 -8 4 -26 23 -41 41 -15 19 -27 30 -28 25 0 -4 -4 1 -8
12 -5 11 -13 20 -18 20 -27 0 -143 132 -143 163 0 7 -3 12 -7 12 -5 0 -9 12
-10 27 0 15 -6 29 -12 31 -5 2 -7 10 -4 19 4 11 2 14 -5 9 -7 -4 -12 -2 -12 4
0 7 -7 9 -16 6 -9 -3 -12 -2 -9 5 4 6 13 8 21 5 12 -4 12 -2 4 14 -6 11 -16
20 -23 20 -7 0 -13 9 -14 19 -1 14 3 18 15 15 12 -4 10 -1 -3 7 -27 17 -34 29
-30 51 8 40 -41 105 -85 112 -3 1 -11 5 -17 9 -12 8 -17 2 -14 -15 1 -10 -21
-10 -37 0 -9 6 -6 12 13 20 14 6 25 17 25 24 0 9 -3 8 -10 -2 -6 -9 -10 -10
-10 -3 0 9 -38 25 -115 47 -5 2 -20 0 -32 -5z m-13 -29 c0 -5 -5 -10 -11 -10
-5 0 -7 5 -4 10 3 6 8 10 11 10 2 0 4 -4 4 -10z m147 -16 c2 -6 -3 -11 -11
-11 -8 0 -13 4 -10 8 2 4 -2 10 -8 13 -7 3 -4 5 6 3 11 -1 21 -7 23 -13z
m-159 -41 c14 -11 12 -13 -12 -13 -22 0 -27 4 -22 16 3 9 6 21 7 27 0 7 3 5 6
-3 3 -8 12 -21 21 -27z m126 -79 c3 -8 2 -12 -4 -9 -6 3 -10 10 -10 16 0 14 7
11 14 -7z m37 3 c-7 -7 -14 -8 -21 -1 -6 6 -2 10 12 11 16 2 18 -1 9 -10z
m117 1 c18 -15 15 -24 -8 -24 -22 0 -27 12 -7 19 7 3 6 6 -5 6 -9 1 -20 -3
-23 -9 -3 -5 -12 -10 -18 -9 -8 0 -7 3 2 6 10 4 10 7 1 13 -7 4 -1 8 16 8 16
0 35 -5 42 -10z m1 -115 c2 -2 -3 -3 -11 -3 -9 0 -19 7 -22 16 -6 15 -4 15 11
3 10 -7 20 -15 22 -16z m-239 -83 c-6 -12 -7 -20 -1 -20 5 0 12 6 14 13 4 9 6
9 6 -1 1 -7 -6 -15 -14 -18 -11 -5 -12 -10 -4 -26 6 -11 8 -22 5 -26 -3 -3 -6
1 -6 9 0 12 -2 12 -9 0 -6 -9 -11 -10 -15 -2 -4 6 -3 11 2 11 5 0 7 11 4 25
-2 14 1 32 8 40 18 21 23 19 10 -5z m115 -3 c4 5 5 3 1 -4 -4 -7 0 -23 7 -35
8 -13 20 -40 27 -61 8 -25 17 -37 25 -33 10 3 12 -5 9 -36 -4 -26 -2 -38 5
-33 6 3 11 1 11 -5 0 -7 7 -10 15 -6 14 5 14 2 1 -23 -14 -27 -14 -30 12 -52
20 -18 23 -19 11 -4 -19 24 -19 47 0 53 8 3 11 0 7 -7 -4 -6 -1 -11 8 -11 17
0 21 -12 9 -24 -5 -4 -9 -12 -9 -17 -1 -5 -2 -13 -3 -19 -2 -16 -51 -11 -75 8
-13 9 -21 23 -18 30 2 6 0 12 -5 12 -13 0 -54 76 -64 119 -5 20 -12 67 -15
106 -6 68 -5 69 13 52 11 -9 23 -14 28 -10z m30 -27 c3 -5 2 -10 -4 -10 -5 0
-13 5 -16 10 -3 6 -2 10 4 10 5 0 13 -4 16 -10z m-170 -130 c3 -5 1 -10 -4
-10 -6 0 -11 5 -11 10 0 6 2 10 4 10 3 0 8 -4 11 -10z m26 -29 c6 10 8 7 6 -8
-1 -17 -4 -19 -14 -11 -7 6 -13 16 -12 22 0 6 3 5 6 -3 5 -11 7 -11 14 0z
m-23 -66 c-3 -3 -9 2 -12 12 -6 14 -5 15 5 6 7 -7 10 -15 7 -18z m-23 -16 c-5
-15 -4 -19 4 -15 6 4 11 2 11 -3 0 -16 -15 -13 -41 9 l-24 19 23 -4 c12 -2 22
0 22 6 0 5 3 9 6 9 3 0 2 -10 -1 -21z m68 -12 c7 4 6 0 -2 -10 -16 -21 -31
-13 -31 16 1 20 2 20 11 4 6 -10 15 -14 22 -10z m92 3 c-3 -5 -12 -10 -18 -10
-7 0 -6 4 3 10 19 12 23 12 15 0z m-160 -31 c5 -6 2 -9 -9 -9 -9 0 -15 -4 -12
-9 3 -4 18 -6 32 -3 18 3 25 1 20 -6 -4 -6 -14 -8 -23 -5 -13 5 -15 2 -10 -11
4 -11 3 -16 -4 -14 -6 2 -11 8 -11 13 0 6 -9 23 -21 39 l-20 28 24 -7 c13 -4
28 -11 34 -16z m527 -17 c8 -8 5 -9 -11 -5 -12 3 -24 9 -26 13 -8 12 23 6 37
-8z m15 -28 c-3 -3 -12 -4 -19 -1 -8 3 -5 6 6 6 11 1 17 -2 13 -5z m-447 -54
c18 -12 2 -12 -25 0 -13 6 -15 9 -5 9 8 0 22 -4 30 -9z m527 -28 c-9 -2 -15
-8 -12 -13 7 -10 -8 -13 -18 -3 -10 11 17 32 33 26 12 -5 12 -7 -3 -10z m129
-27 c19 -15 19 -15 0 -8 -15 5 -18 3 -13 -10 3 -9 2 -17 -3 -17 -6 0 -10 7
-10 16 0 8 -4 12 -10 9 -6 -3 -7 1 -4 9 8 20 15 20 40 1z m82 -4 c3 -8 0 -11
-6 -7 -6 3 -12 2 -14 -3 -1 -4 -12 -5 -23 0 l-20 8 20 0 c17 1 18 3 5 12 -12
8 -10 9 9 7 14 -2 26 -9 29 -17z m-543 -31 c2 -4 -7 -5 -20 -2 -14 2 -25 8
-25 12 0 10 38 1 45 -10z m369 -15 c11 -8 15 -15 9 -15 -6 0 -18 -2 -25 -5 -9
-4 -14 2 -15 15 -2 24 5 25 31 5z m35 -79 c9 -10 8 -15 -3 -19 -9 -4 -18 -1
-22 5 -5 7 -2 8 6 3 10 -6 12 -4 7 8 -8 21 -3 22 12 3z m86 3 c3 -5 0 -6 -8
-3 -8 3 -17 -2 -20 -10 -4 -9 -12 -16 -18 -16 -8 0 -9 4 0 13 6 8 9 16 6 18
-2 3 5 5 15 6 11 1 22 -2 25 -8z m49 3 c3 -5 -1 -9 -9 -9 -8 0 -15 4 -15 9 0
4 4 8 9 8 6 0 12 -4 15 -8z m-26 -32 c15 0 15 -2 2 -10 -8 -5 -26 -7 -40 -4
-18 4 -21 3 -11 -4 10 -7 6 -9 -13 -9 -14 0 -26 4 -26 9 0 5 -9 4 -19 -2 -11
-5 -23 -10 -28 -10 -4 1 3 7 16 14 13 7 32 11 41 9 10 -3 21 0 25 7 4 6 14 9
22 6 8 -3 22 -6 31 -6z"/>
<path d="M1686 1537 c3 -10 9 -15 12 -12 3 3 0 11 -7 18 -10 9 -11 8 -5 -6z"/>
<path d="M2750 2101 c0 -11 4 -31 9 -44 12 -30 69 -97 84 -97 6 0 1 10 -11 23
-11 12 -32 48 -46 80 -27 60 -36 70 -36 38z"/>
<path d="M3010 2109 c34 -16 50 -19 50 -8 0 5 -6 9 -12 9 -7 0 -24 3 -38 5
l-25 6 25 -12z"/>
<path d="M3084 2104 c3 -9 6 -18 6 -20 0 -13 18 -1 22 14 4 12 -1 18 -14 19
-14 1 -18 -3 -14 -13z"/>
<path d="M2063 2004 c-1 -62 3 -104 8 -104 6 0 7 5 4 10 -3 6 -2 10 3 10 11 0
6 170 -5 181 -5 4 -9 -39 -10 -97z"/>
<path d="M1334 2076 c-3 -8 -1 -23 5 -33 9 -15 10 -13 9 15 -2 35 -6 39 -14
18z"/>
<path d="M1365 2080 c-3 -5 -1 -10 4 -10 6 0 11 5 11 10 0 6 -2 10 -4 10 -3 0
-8 -4 -11 -10z"/>
<path d="M1660 2080 c0 -5 7 -10 16 -10 8 0 12 5 9 10 -3 6 -10 10 -16 10 -5
0 -9 -4 -9 -10z"/>
<path d="M2314 2059 c-4 -8 -3 -9 5 -5 6 4 19 2 28 -6 14 -11 15 -11 11 2 -6
19 -34 25 -44 9z"/>
<path d="M2820 2045 c7 -8 17 -15 22 -15 6 0 5 7 -2 15 -7 8 -17 15 -22 15 -6
0 -5 -7 2 -15z"/>
<path d="M3355 2044 c-20 -15 -12 -17 19 -5 11 4 15 10 10 13 -5 4 -18 0 -29
-8z"/>
<path d="M4096 1994 c-4 -9 -4 -19 -1 -22 2 -3 7 3 11 12 4 9 4 19 1 22 -2 3
-7 -3 -11 -12z"/>
<path d="M4183 1991 c-13 -3 -33 -15 -45 -26 -12 -11 -34 -28 -48 -37 l-25
-18 51 0 c40 0 55 5 73 24 29 31 25 64 -6 57z"/>
<path d="M2533 1933 c9 -2 23 -2 30 0 6 3 -1 5 -18 5 -16 0 -22 -2 -12 -5z"/>
<path d="M3329 1882 c-3 -20 -2 -29 4 -23 5 5 7 19 5 32 -3 20 -5 19 -9 -9z"/>
<path d="M2071 1874 c0 -11 3 -14 6 -6 3 7 2 16 -1 19 -3 4 -6 -2 -5 -13z"/>
<path d="M2285 1850 c3 -4 17 -11 32 -15 15 -3 57 -26 93 -51 36 -24 73 -44
81 -44 7 0 -2 10 -23 23 -20 12 -56 35 -81 50 -46 28 -112 52 -102 37z"/>
<path d="M2226 1805 c4 -8 11 -15 16 -15 6 0 5 6 -2 15 -7 8 -14 15 -16 15 -2
0 -1 -7 2 -15z"/>
<path d="M2600 1750 c8 -5 22 -9 30 -9 10 0 8 3 -5 9 -27 12 -43 12 -25 0z"/>
<path d="M2765 1750 c-3 -5 -1 -10 4 -10 6 0 11 5 11 10 0 6 -2 10 -4 10 -3 0
-8 -4 -11 -10z"/>
<path d="M2530 1730 c8 -5 24 -10 34 -10 26 0 18 6 -19 14 -22 5 -26 4 -15 -4z"/>
<path d="M2685 1730 l-30 -8 37 -1 c20 0 40 4 43 9 7 11 -6 11 -50 0z"/>
<path d="M2801 1721 c-16 -12 -20 -21 -12 -25 6 -4 11 -2 11 4 0 7 6 10 14 7
10 -4 14 0 13 14 -1 10 -1 19 -2 19 0 0 -11 -9 -24 -19z"/>
<path d="M2895 1726 c-21 -22 -24 -33 -10 -33 8 0 13 3 10 5 -3 3 0 11 7 19
13 17 7 25 -7 9z"/>
<path d="M3855 1410 c3 -5 8 -10 11 -10 2 0 4 5 4 10 0 6 -5 10 -11 10 -5 0
-7 -4 -4 -10z"/>
<path d="M1400 1359 c0 -5 14 -15 30 -24 17 -9 30 -13 30 -9 0 4 6 1 14 -5 9
-8 16 -8 20 -2 4 5 2 12 -4 16 -5 3 -10 3 -10 -1 0 -4 -8 0 -17 8 -22 18 -63
30 -63 17z"/>
<path d="M2720 1360 c0 -5 5 -10 11 -10 5 0 7 5 4 10 -3 6 -8 10 -11 10 -2 0
-4 -4 -4 -10z"/>
<path d="M2645 1320 c-16 -7 -17 -9 -3 -9 9 -1 20 4 23 9 7 11 7 11 -20 0z"/>
<path d="M2950 1320 c-9 -6 -10 -10 -3 -10 6 0 15 5 18 10 8 12 4 12 -15 0z"/>
<path d="M2730 1284 c-38 -19 -41 -23 -18 -21 15 1 24 5 22 9 -3 4 8 8 24 8
16 0 35 7 42 15 19 23 -16 18 -70 -11z"/>
<path d="M1960 1269 c0 -5 5 -7 10 -4 6 3 10 8 10 11 0 2 -4 4 -10 4 -5 0 -10
-5 -10 -11z"/>
<path d="M2891 1254 c0 -11 3 -14 6 -6 3 7 2 16 -1 19 -3 4 -6 -2 -5 -13z"/>
<path d="M2045 1227 c-4 -10 -5 -21 -1 -24 10 -10 18 4 13 24 -4 17 -4 17 -12
0z"/>
<path d="M2578 1233 c6 -2 18 -2 25 0 6 3 1 5 -13 5 -14 0 -19 -2 -12 -5z"/>
<path d="M2320 1209 c6 -11 16 -16 26 -12 18 6 4 25 -21 29 -11 2 -13 -2 -5
-17z"/>
<path d="M2070 1190 c0 -6 7 -10 15 -10 8 0 15 2 15 4 0 2 -7 6 -15 10 -8 3
-15 1 -15 -4z"/>
<path d="M2750 1160 c-8 -5 -12 -12 -9 -15 4 -3 12 1 19 10 14 17 11 19 -10 5z"/>
<path d="M2564 1108 c2 -7 8 -14 14 -14 25 -3 27 -5 12 -15 -12 -9 -12 -10 3
-5 10 3 22 6 27 6 4 0 11 8 14 17 4 10 4 14 0 10 -4 -4 -13 -2 -21 4 -9 9 -17
8 -27 0 -10 -8 -16 -9 -19 -1 -3 6 -4 5 -3 -2z m51 -8 c3 -5 2 -10 -4 -10 -5
0 -13 5 -16 10 -3 6 -2 10 4 10 5 0 13 -4 16 -10z"/>
<path d="M2628 1057 c7 -8 10 -16 7 -19 -3 -3 2 -11 12 -19 11 -9 14 -10 9 -1
-4 6 -2 12 3 12 20 0 11 17 -16 29 -22 10 -25 10 -15 -2z"/>
<path d="M2504 1049 c-7 -11 27 -11 45 0 9 6 5 9 -13 9 -15 0 -29 -4 -32 -9z"/>
</g>
</svg>
